<?xml version="1.0" encoding="UTF-8" standalone="no"?>
<!-- Created with Inkscape (http://www.inkscape.org/) -->

<svg
   version="1.1"
   id="svg1"
   width="389.76379"
   height="249.60629"
   viewBox="0 0 389.76379 249.60629"
   sodipodi:docname="rak2.svg"
   inkscape:version="1.4.3 (0d15f75042, 2025-12-25)"
   xmlns:inkscape="http://www.inkscape.org/namespaces/inkscape"
   xmlns:sodipodi="http://sodipodi.sourceforge.net/DTD/sodipodi-0.dtd"
   xmlns="http://www.w3.org/2000/svg"
   xmlns:svg="http://www.w3.org/2000/svg">
  <defs
     id="defs1">
    <inkscape:path-effect
       effect="bspline"
       id="path-effect9"
       is_visible="true"
       lpeversion="1.3"
       weight="33.333333"
       steps="2"
       helper_size="0"
       apply_no_weight="true"
       apply_with_weight="true"
       only_selected="false"
       uniform="false" />
    <inkscape:path-effect
       effect="bspline"
       id="path-effect8"
       is_visible="true"
       lpeversion="1.3"
       weight="33.333333"
       steps="2"
       helper_size="0"
       apply_no_weight="true"
       apply_with_weight="true"
       only_selected="false"
       uniform="false" />
    <inkscape:path-effect
       effect="bspline"
       id="path-effect7"
       is_visible="true"
       lpeversion="1.3"
       weight="33.333333"
       steps="2"
       helper_size="0"
       apply_no_weight="true"
       apply_with_weight="true"
       only_selected="false"
       uniform="false" />
    <inkscape:path-effect
       effect="bspline"
       id="path-effect6"
       is_visible="true"
       lpeversion="1.3"
       weight="33.333333"
       steps="2"
       helper_size="0"
       apply_no_weight="true"
       apply_with_weight="true"
       only_selected="false"
       uniform="false" />
    <inkscape:path-effect
       effect="bspline"
       id="path-effect5"
       is_visible="true"
       lpeversion="1.3"
       weight="33.333333"
       steps="2"
       helper_size="0"
       apply_no_weight="true"
       apply_with_weight="true"
       only_selected="false"
       uniform="false" />
    <inkscape:path-effect
       effect="bspline"
       id="path-effect4"
       is_visible="true"
       lpeversion="1.3"
       weight="33.333333"
       steps="2"
       helper_size="0"
       apply_no_weight="true"
       apply_with_weight="true"
       only_selected="false"
       uniform="false" />
    <inkscape:path-effect
       effect="bspline"
       id="path-effect3"
       is_visible="true"
       lpeversion="1.3"
       weight="33.333333"
       steps="2"
       helper_size="0"
       apply_no_weight="true"
       apply_with_weight="true"
       only_selected="false"
       uniform="false" />
    <inkscape:path-effect
       effect="bspline"
       id="path-effect2"
       is_visible="true"
       lpeversion="1.3"
       weight="33.333333"
       steps="2"
       helper_size="0"
       apply_no_weight="true"
       apply_with_weight="true"
       only_selected="false"
       uniform="false" />
  </defs>
  <sodipodi:namedview
     id="namedview1"
     pagecolor="#ffffff"
     bordercolor="#000000"
     borderopacity="0.25"
     inkscape:showpageshadow="2"
     inkscape:pageopacity="0.0"
     inkscape:pagecheckerboard="0"
     inkscape:deskcolor="#d1d1d1"
     showgrid="false"
     inkscape:zoom="1.27"
     inkscape:cx="205.90551"
     inkscape:cy="194.48819"
     inkscape:window-width="1920"
     inkscape:window-height="1011"
     inkscape:window-x="0"
     inkscape:window-y="0"
     inkscape:window-maximized="1"
     inkscape:current-layer="g1" />
  <g
     inkscape:groupmode="layer"
     inkscape:label="Layer 1"
     id="g1"
     transform="translate(0,1.5748031)">
    <path
       id="path1"
       style="fill:#000000"
       d="m 317.89226,15.863034 c -7.22886,-1.987626 -15.17351,-2.038672 -26.83961,-0.422875 -2.39279,0.331411 -6.01478,0.529431 -8.0486,0.440214 -2.03384,-0.08922 -6.25047,1.174294 -9.36986,2.80891 -5.50829,2.886431 -22.85571,17.678213 -23.57371,20.101015 -0.19618,0.66196 -2.02998,1.707522 -4.07592,2.322363 -2.04594,0.614842 -4.59231,2.697108 -5.65704,4.626267 -1.06473,1.929159 -3.22669,3.772756 -4.80593,4.098295 -1.57922,0.325541 -6.32827,2.313421 -10.55297,4.415931 -4.76208,2.36996 -9.48442,3.63054 -12.42722,3.31659 -2.61072,-0.27851 -7.59217,-0.14822 -11.07003,0.29039 -6.87701,0.86727 -17.08709,-1.48933 -17.79894,-4.10752 -0.24801,-0.91219 -1.9533,-1.69862 -3.85861,-1.77908 -1.87836,-0.0793 -4.02158,-1.04957 -4.76308,-2.157122 -0.7415,-1.107568 -2.94331,-2.172551 -4.8925,-2.366595 -2.66056,-0.264864 -4.11981,-1.489124 -5.85379,-4.910604 -1.27036,-2.506651 -5.65141,-7.863827 -9.73531,-11.905301 -6.41025,-6.343653 -9.06588,-7.994121 -19.43335,-12.072053 -12.73491,-5.009138 -18.2608,-5.922105 -26.57715,-4.394825 -9.378742,1.722383 -15.250474,4.532705 -16.206271,7.757909 -0.49802,1.680498 -1.506037,3.21818 -2.241326,3.418096 -2.058148,0.559576 -10.066496,9.957575 -10.909695,12.802832 -0.535591,1.807278 -3.119211,2.930738 -9.033672,3.929126 -8.837182,1.491757 -23.651988,7.820342 -24.426795,10.434817 -0.256923,0.86695 -2.379513,2.52717 -4.717125,3.68867 -11.522665,5.72533 -24.7218,20.85368 -28.162686,32.27954 -2.012634,6.68318 -0.809565,17.435886 2.045932,18.282116 1.046771,0.31022 2.597544,-1.43557 3.948129,-4.44825 1.22288,-2.727806 8.692217,-11.957036 16.599072,-20.507726 l 14.375078,-15.54651 10.682824,-2.00832 c 8.035458,-1.51156 10.816142,-1.53757 11.224615,-0.10401 0.985123,3.45734 -0.197307,4.75185 -6.015648,6.5856 -13.374173,4.21512 -25.147166,11.95304 -29.657233,19.49188 -1.515816,2.53377 -5.563134,8.46956 -8.993298,13.189456 -5.338231,7.34539 -6.548598,9.99167 -8.398063,18.37098 -2.58751,11.72313 -2.007979,18.49691 2.253103,26.34723 3.678768,6.77751 5.895486,8.13132 5.669171,3.46457 -0.215383,-4.4414 10.418136,-37.58924 14.258804,-44.45057 2.376537,-4.24567 4.388243,-6.05656 8.009292,-7.208876 2.65968,-0.84638 9.194109,-4.01273 14.521257,-7.03501 7.329172,-4.15811 9.937575,-5.0286 10.724521,-3.57878 0.571985,1.05378 2.061241,2.21812 3.309258,2.58797 1.823454,0.54039 2.339955,-0.10065 2.627777,-3.26486 0.276719,-3.04217 1.027311,-4.07511 3.297906,-4.54317 3.56103,-0.73406 29.210413,1.07637 29.766613,2.10106 0.21719,0.40015 -1.1523,2.20135 -3.0423,4.00371 -3.30016,3.14711 -3.72293,3.17514 -10.670482,0.6675 -6.168242,-2.14003 -10.69294,-1.31959 -16.513219,1.96106 -5.09568,2.86309 -7.372865,0.76905 -17.311167,8.420496 -5.489532,4.21897 -9.988048,8.41078 -12.283154,14.94216 -4.166744,9.26601 -5.039475,3.34449 -11.840262,24.85142 -3.612857,11.42537 -3.741899,20.84598 -0.610047,25.07909 0.99016,1.33833 2.089988,3.72927 2.44437,5.31395 0.354371,1.58472 1.843278,4.48603 3.308157,6.44793 2.11803,2.83666 3.083433,3.3391 4.716183,2.45286 1.452343,-0.78832 1.722385,-1.50004 0.924799,-2.43322 -2.298627,-2.6894 -2.459907,-8.26926 -0.367773,-12.6717 7.431555,-15.63808 8.657206,-19.22871 10.98158,-32.16848 l 1.611155,-8.97666 5.552004,-2.80772 c 3.052848,-1.54435 7.725697,-5.05715 10.384472,-7.80669 3.578669,-3.70083 5.584381,-4.77817 7.722476,-4.14454 1.588498,0.47076 4.965752,0.14316 7.506811,-0.72912 2.541057,-0.87227 4.963147,-1.48497 5.381937,-1.36086 0.41879,0.12411 0.0833,2.51662 -0.74622,5.31566 -1.334223,4.50216 -1.940616,5.06219 -5.264136,4.86085 -6.508173,-0.39425 -19.479007,8.24306 -21.224753,14.13384 -0.591771,1.99684 -3.370345,6.82324 -6.174826,10.72463 -8.288507,11.53034 -8.422808,24.30733 -0.352752,33.53183 2.295322,2.62368 2.874258,4.38587 1.922356,5.85187 -1.622139,2.49822 0.160584,9.36726 2.620153,10.09615 0.953151,0.28247 1.936703,2.45392 2.185691,4.82581 0.640975,6.10598 6.003786,13.98605 11.360384,16.69126 2.509056,1.26712 6.390669,4.01894 8.625255,6.11695 2.234587,2.09801 6.077358,4.96852 8.540078,6.37689 6.3069,3.60679 14.87961,6.11358 22.09592,6.46263 3.39325,0.16404 7.13544,0.47032 8.31691,0.68228 1.18146,0.21195 3.41285,-0.29992 4.95745,-1.13832 1.5446,-0.8384 3.21753,-1.40338 3.7188,-1.25483 1.48742,0.4408 7.43501,-5.64219 8.26946,-8.45793 1.06653,-3.59884 -0.90426,-5.35027 -4.2261,-3.75599 -3.6041,1.72968 -13.5938,0.48385 -14.2071,-1.77192 -0.2506,-0.92152 -1.76352,-2.06469 -3.36261,-2.53859 -1.59909,-0.47389 -3.20662,-1.41963 -3.57159,-2.10144 -0.36496,-0.6818 -3.74902,-2.80948 -7.52116,-4.72842 l -6.85776,-3.48883 13.26525,2.85356 c 11.9443,2.56868 13.69496,3.26045 17.58267,6.95443 4.9585,4.71141 5.91598,4.5633 7.61829,-1.18091 0.97852,-3.30189 0.41131,-5.43 -2.74582,-10.30452 -3.99598,-6.16996 -13.90963,-14.67222 -18.79776,-16.12083 -1.44068,-0.42695 -4.53133,-3.2408 -6.86794,-6.25211 -2.33653,-3.01129 -6.37642,-6.5 -8.97758,-7.75324 -3.24332,-1.56263 -5.7174,-4.18499 -7.8747,-8.34717 -1.73016,-3.33808 -3.922642,-6.59617 -4.870464,-7.23888 -1.432823,-0.97159 -1.291765,-1.66257 0.831462,-4.10481 2.251742,-2.59009 2.900972,-2.67349 5.494542,-0.696 4.35667,3.3218 7.00692,3.7652 10.90818,1.823 4.15905,-2.07053 6.76173,-1.53252 8.13859,1.68262 0.8166,1.90677 3.84891,3.0747 16.06683,6.18537 8.28382,2.10906 17.27542,4.50502 19.98059,5.32443 5.04385,1.52782 10.68804,0.5509 15.97081,-2.76349 1.64422,-1.03157 2.79326,-1.21118 2.553,-0.40047 -0.61772,2.08441 6.58291,3.94599 9.38291,2.42619 2.81085,-1.52571 7.78668,-0.80376 11.26336,1.63492 2.72605,1.91216 8.27195,1.41155 10.8423,-0.97918 0.8444,-0.78538 2.2982,-1.20119 3.23183,-0.92451 0.93363,0.27669 2.60957,-0.10616 3.7237,-0.85207 1.57616,-1.05525 2.96151,-0.77458 6.24364,1.27178 3.57319,2.22782 4.89057,2.38623 8.61422,1.03318 2.4177,-0.87851 5.30746,-1.3259 6.42255,-0.99544 1.11509,0.33046 3.95519,-0.445 6.31031,-1.72334 2.35512,-1.27833 6.2416,-2.07354 8.63739,-1.76706 2.3958,0.30648 6.24534,-0.3781 8.55422,-1.52078 2.30888,-1.14266 4.85301,-1.88428 5.6541,-1.64687 2.70123,0.80052 9.91033,-1.67086 12.04942,-4.13135 1.34407,-1.54601 3.82692,-2.26779 6.7669,-1.9649 5.31215,0.54728 9.11863,-1.36537 11.81549,-5.94034 1.25137,-2.12284 3.30578,-3.24513 6.18652,-3.38155 2.37171,-0.11233 4.4469,-0.16516 4.6118,-0.11629 0.1649,0.0489 -2.16679,3.1892 -5.18054,6.97772 -3.86791,4.86229 -5.61542,8.20232 -5.94036,11.35636 -0.32233,3.1287 -1.09342,4.62002 -2.57321,4.97794 -1.16234,0.28112 -4.304,2.31987 -6.9828,4.52875 -2.67881,2.20887 -6.8069,4.52713 -9.17419,5.1525 -7.36139,1.94469 -16.47782,7.61903 -21.66133,13.48296 -10.33383,11.69033 -10.65787,28.51747 -0.34006,17.65854 4.2711,-4.4951 13.61317,-8.71583 17.0425,-7.69954 1.16882,0.34638 3.9884,-0.009 6.26386,-0.78986 9.64521,-3.31094 12.40553,0.46152 4.14514,5.6652 -2.87018,1.80809 -5.3307,3.66257 -5.46641,4.12052 -0.13572,0.45795 -2.80401,2.22125 -5.92993,3.91798 -3.12593,1.69671 -6.53866,3.91918 -7.58512,4.93896 -1.04647,1.01978 -4.54093,1.729 -7.76382,1.57575 -7.35042,-0.3495 -8.74045,1.52491 -4.29776,5.79301 5.42912,5.21574 12.79881,6.82347 23.46774,5.11931 24.28573,-3.87921 53.15058,-30.72403 53.95725,-50.18236 0.13957,-3.36648 1.07947,-7.68658 2.08947,-9.60084 3.01664,-5.71738 3.75279,-18.92249 1.44079,-25.827 -1.16523,-3.47976 -2.21859,-8.48537 -2.34205,-11.12395 -0.32036,-6.84692 -4.93711,-12.75182 -12.2912,-15.72246 -3.36369,-1.35873 -6.26125,-3.00313 -6.43813,-3.65374 -0.17689,-0.65061 4.31892,-3.6321 9.9892,-6.62416 5.33341,-2.2745 8.47826,-6.62933 13.39511,-4.50664 0.94294,0.51093 1.82635,1.36299 3.08955,2.28452 6.33904,4.62434 10.39019,5.9594 11.14988,7.29698 0.35113,0.61817 -0.86515,7.24945 -2.70271,14.7359 -1.83757,7.48644 -3.43908,14.052 -3.55797,14.59041 -0.11888,0.53841 0.34352,1.14479 1.02857,1.34781 1.88861,0.55969 6.48715,-4.78996 10.80496,-12.57313 l 3.87155,-6.98062 1.07932,5.66518 c 1.35112,7.08703 -2.54451,27.55057 -6.29971,33.08743 -5.74048,8.46404 -0.90784,10.4692 7.11842,2.95291 16.61025,-15.55485 20.54415,-37.72701 9.79849,-55.23872 -2.63196,-4.2892 -5.29946,-7.95066 -5.92652,-8.13649 -0.62706,-0.18584 -0.73927,-1.69161 -0.24916,-3.345406 0.4901,-1.65378 0.15868,-5.33524 -0.73699,-8.18137 -1.74189,-5.5351 -7.71879,-13.69002 -9.64917,-13.16518 -0.64255,0.17469 -1.24399,-0.63951 -1.3358,-1.80961 -0.0918,-1.1701 -1.55208,-2.53779 -3.24661,-3.03997 -2.14789,-0.63653 -3.21783,-2.11113 -3.52942,-4.86956 -0.24582,-2.17621 -2.05056,-5.99646 -4.01093,-8.48957 -5.59846,-7.11987 -7.93993,-12.383158 -7.84141,-17.622342 0.10736,-5.709019 -2.06685,-14.517673 -3.70236,-15.002359 -0.63144,-0.18713 -1.1092,-1.531609 -1.06212,-2.987422 0.0625,-1.933802 -1.45082,-3.365103 -5.61699,-5.310993 -2.36183,-1.103135 -4.69092,-1.979512 -7.10054,-2.642054 z m -0.0409,3.045554 c 1.47954,0.433459 2.70303,1.107113 4.25075,2.11937 5.35748,3.503959 5.36836,4.446174 0.0968,7.798146 -3.24793,2.06524 -5.51983,2.154148 -14.42244,0.570065 -5.81237,-1.034224 -12.37,-1.743403 -14.57255,-1.576694 -5.14421,0.389354 -4.93597,0.50902 -5.00101,-2.873393 -0.0877,-4.562221 4.46316,-6.297368 17.41684,-6.639318 6.58676,-0.173876 9.76569,-0.120571 12.23158,0.601824 z m 10.39229,9.942726 c 0.0595,0.02056 0.11438,0.04924 0.16473,0.08345 0.80319,0.545833 2.1952,4.45439 3.09303,8.686076 1.60096,7.545687 1.10936,8.840478 -1.98625,5.231325 -0.85268,-0.994126 -2.77043,-2.180271 -4.26314,-2.63435 -4.38109,-1.332725 -4.85138,-4.279952 -1.36153,-8.541654 1.58127,-1.930996 3.46071,-3.133196 4.35316,-2.824847 z m -43.29478,-8.727826 c 0.93197,0.261164 0.86118,1.273366 0.29613,3.180057 -0.49541,1.671677 -0.25011,4.011431 0.54516,5.199274 1.85587,2.772002 0.96172,5.848294 -1.48938,5.121904 -1.04036,-0.308315 -3.75118,1.396392 -6.02389,3.788272 -2.27269,2.39189 -7.3458,6.051254 -11.2733,8.132003 -11.25724,5.963986 -16.28964,7.468256 -17.50312,5.232606 -1.46412,-2.697385 0.18642,-7.33204 4.0564,-11.385035 6.51322,-6.821225 19.62763,-16.203158 25.07887,-17.941766 3.44651,-1.099228 5.38115,-1.58848 6.31313,-1.327315 z m 32.77735,14.089314 c 0.68975,0.181766 1.26235,0.757542 1.49762,1.58663 0.92319,3.253262 0.47702,3.6772 -4.40733,4.189935 -2.51038,0.263527 -7.61802,1.642219 -11.34996,3.063419 -4.03564,1.53685 -8.27275,2.144017 -10.45405,1.497584 -2.01715,-0.597787 -4.74134,-0.358722 -6.05501,0.531935 -1.31368,0.890658 -7.69218,3.677967 -14.17443,6.194629 -6.48225,2.51666 -13.7255,5.31583 -16.09675,6.21977 l -4.31258,1.64314 0.9301,-3.13852 c 0.67664,-2.28323 2.10559,-3.26123 5.24632,-3.59093 4.09499,-0.42987 22.52511,-10.341811 23.15016,-12.450969 0.16182,-0.54604 3.3074,-2.788525 6.99101,-4.982628 6.39836,-3.811102 7.13231,-3.90585 16.42216,-2.114347 5.34829,1.031393 10.577,1.643224 11.61995,1.359663 0.34152,-0.09286 0.67926,-0.09193 0.99279,-0.0093 z m 6.81559,9.94816 c 4.08995,1.210918 9.94494,5.442857 9.48567,6.856752 -0.48876,1.50459 -2.99594,2.93831 -5.4156,3.09667 -1.36497,0.0893 -2.73559,1.01663 -3.04524,2.0615 -0.34437,1.16204 -2.24971,1.66686 -4.90509,1.29847 -2.38762,-0.33125 -8.33812,-1.463 -13.22351,-2.51323 -7.08024,-1.52207 -8.91472,-2.33648 -9.04644,-4.01523 -0.0909,-1.158346 0.89825,-2.820234 2.19869,-3.69352 3.61277,-2.426083 19.34273,-4.455988 23.95152,-3.091412 z m 10.46333,10.933432 c 0.92193,0.29195 1.96073,1.27129 3.85785,3.22518 2.14588,2.21011 4.39469,5.98155 4.99608,8.38226 1.04221,4.16037 0.98562,4.32797 -1.17885,3.55166 -1.24899,-0.44796 -4.70465,-3.56589 -7.68043,-6.92678 -4.9888,-5.63443 -5.20051,-6.22376 -2.72356,-7.56823 1.08367,-0.5882 1.79146,-0.88131 2.54615,-0.71418 0.0607,0.0134 0.1213,0.0306 0.18276,0.0501 z M 291.4807,47.84262 c 1.8573,0.547912 3.60074,2.810394 4.25471,5.982864 0.81314,3.94469 -3.42335,7.67889 -10.23,9.01768 -2.70813,0.53264 -8.64669,2.1538 -13.19816,3.60147 -11.38152,3.62006 -13.5993,3.43644 -15.99142,-1.31883 l -1.97558,-3.92629 5.16966,-1.84749 c 2.84326,-1.01603 10.15813,-3.61502 16.2563,-5.77525 6.09817,-2.16024 12.03997,-4.564959 13.20318,-5.34373 0.79975,-0.535444 1.66709,-0.639466 2.51131,-0.390424 z m 36.73239,14.106374 c 1.0079,0.33431 1.9852,0.81721 2.92106,1.51956 1.94341,1.75369 3.67536,3.40001 5.78908,4.97088 0.75257,0.55931 1.32304,0.98785 1.13456,1.10014 -0.18848,0.11228 -1.13622,-0.091 -2.88621,-0.55793 -5.79668,-1.39415 -11.55301,-3.69503 -17.51797,-4.16887 -2.12277,-0.19309 -6.99765,0.94245 -10.83169,2.5244 -3.83403,1.58195 -9.64983,3.80568 -12.92447,4.93946 -3.27464,1.13377 -8.58172,3.20441 -11.79379,4.6023 -4.5047,1.96046 -7.9802,2.25066 -15.1974,1.26727 -5.14621,-0.7012 -10.64098,-1.16474 -12.21075,-1.02955 -5.18141,0.4462 5.00612,-4.75126 10.64853,-5.43263 2.77637,-0.33527 6.89222,-1.55373 9.14645,-2.70808 2.25425,-1.15434 7.18837,-2.45829 10.96439,-2.89656 4.64273,-0.53888 8.16195,-2.0039 10.87064,-4.52551 4.29264,-3.99616 5.42644,-4.09252 18.02005,-1.53284 4.56406,1.80561 9.49997,0.47928 13.86752,1.92796 z m 12.09978,10.56689 c 5.16821,1.52932 9.90754,3.21038 10.27039,3.87887 0.31243,0.57558 -0.30387,1.93045 -1.37073,3.00997 -2.34452,2.37233 -10.19271,2.40173 -18.10335,0.0679 -3.20031,-0.94415 -6.56856,-1.30913 -7.48391,-0.81229 -1.11419,0.60477 -1.27532,-0.76538 -0.48737,-4.14323 0.99843,-4.28018 1.65569,-5.03145 4.32824,-4.96099 2.08178,0.0549 7.6785,1.43044 12.84673,2.95973 z m -94.32963,-27.21944 c 0.52452,0.170004 0.79275,1.07419 0.72284,2.730018 -0.0848,2.007425 0.62937,4.467212 1.58675,5.465172 1.34489,1.40189 1.27894,2.22913 -0.28975,3.63793 -3.06889,2.75609 -4.95482,2.29269 -6.23308,-1.52737 -0.71293,-2.12935 -0.48744,-4.62079 0.58695,-6.503622 1.53907,-2.697156 2.80989,-3.98884 3.57516,-3.815241 0.0175,0.0039 0.0343,0.0077 0.0511,0.01311 z m 74.76038,22.76859 c 0.65734,0.19481 0.54467,2.54762 -0.24982,5.2285 -1.573,5.30787 -4.55747,7.33055 -17.22415,11.66692 -3.7454,1.2822 -7.69997,1.95645 -8.78851,1.50023 -1.08854,-0.45622 -4.35993,-1.77339 -7.26837,-2.92809 -2.90845,-1.15471 -5.16056,-2.52751 -5.00573,-3.04998 0.15484,-0.52247 3.49669,-1.84336 7.42703,-2.93448 3.93033,-1.09111 10.69444,-3.63187 15.0327,-5.64693 7.22646,-3.35661 13.02649,-4.74015 16.07685,-3.83617 z m 33.75119,12.78288 c 2.75884,0.81759 8.51397,11.15484 8.38753,15.06467 -0.0968,2.99313 -0.14031,2.98954 -5.48746,-0.65453 -2.10358,-1.43359 -4.2788,-4.49856 -4.87146,-6.86436 -0.58889,-2.35081 -1.50457,-4.40394 -2.03401,-4.56084 -0.52945,-0.15691 -0.37558,-1.04999 0.34168,-1.98472 0.71727,-0.93472 2.36658,-1.38463 3.66372,-1.00022 z M 126.11459,18.730139 c 4.41962,1.309766 8.18464,2.929587 8.3669,3.599949 0.18226,0.670364 -0.75225,2.362717 -2.07593,3.760455 -1.85717,1.961134 -5.75995,2.605154 -17.09289,2.824114 -8.07726,0.156066 -14.97118,0.192755 -15.320172,0.07994 -0.349,-0.112813 -1.518829,-1.400688 -2.597988,-2.864042 -2.835288,-3.844667 0.117621,-5.938577 11.32976,-8.033788 7.62107,-1.424146 10.84271,-1.30703 17.39032,0.63337 z m 111.07035,33.578035 c 0.70161,0.24068 1.19132,1.27429 2.06876,3.4813 0.92959,2.3382 1.22653,4.66512 0.65918,5.17195 -1.49489,1.33542 -2.47987,0.7593 -5.24563,-3.07219 -2.27042,-3.14524 -2.2527,-3.53144 0.21693,-4.88379 1.08253,-0.59278 1.75506,-0.88447 2.30076,-0.69727 z M 140.59549,23.716237 c 2.21669,0.656921 0.66056,4.215698 -3.3143,7.581709 -1.5675,1.327394 -3.71692,2.155786 -4.77681,1.841683 -1.52988,-0.453381 -1.50025,-0.855497 0.14124,-1.954484 1.13722,-0.761365 2.97999,-2.876242 4.09545,-4.697931 1.11547,-1.821688 2.85034,-3.068538 3.85442,-2.770977 z m 205.51925,61.604867 c 1.84441,0.57604 3.49379,1.45634 4.56327,3.43628 0.85016,1.98522 0.59911,2.26352 -1.47837,1.64786 -4.09064,-2.30606 -8.0984,-2.37414 -12.56931,-2.63104 -7.63053,-1.49487 -15.04159,0.56022 -22.43875,2.50285 -5.11252,1.26206 -10.09294,2.05888 -11.06843,1.76979 -3.34388,-0.99097 -2.50477,-3.21991 1.65752,-4.40391 2.28983,-0.65137 5.98023,-2.03705 8.20141,-3.07981 8.5803,-2.83372 18.52734,-3.08619 27.39993,-0.84926 1.84889,0.75942 3.88832,1.0312 5.73273,1.60724 z M 146.56828,27.572266 c 1.8615,0.551659 14.26557,14.612697 15.68457,17.779221 0.81369,1.815804 1.36366,4.986487 1.22163,7.047757 -0.32892,4.77543 2.76865,6.02664 3.23838,1.30804 0.29172,-2.93024 0.7949,-3.24173 3.80119,-2.35081 2.38954,0.70814 3.43813,1.88332 3.37669,3.78334 -0.10119,3.1289 1.89624,4.34523 2.69715,1.64267 0.29026,-0.97944 1.44192,-1.85303 2.55926,-1.9407 2.15407,-0.16901 3.28137,1.75624 3.77978,6.45121 0.29368,2.76639 0.35588,2.77343 1.66173,0.14614 1.15291,-2.31945 2.15317,-2.48918 6.69542,-1.13253 l 5.34114,1.59508 -9.35163,1.60632 c -7.64875,1.3146 -9.70495,1.21114 -11.2845,-0.57375 -2.37215,-2.68052 -7.7918,-4.41407 -9.37621,-2.99867 -1.66402,1.4865 -10.07954,-1.36812 -13.26814,-4.50039 -1.481,-1.45484 -4.83021,-3.7236 -7.44458,-5.04185 -3.00221,-1.513811 -5.86247,-4.437339 -7.76201,-7.936908 l -3.00636,-5.541607 5.26788,-4.804753 c 2.89795,-2.642464 5.67383,-4.684439 6.16861,-4.53781 z m 102.97465,32.582398 c 2.15077,0.53451 7.04845,8.22072 6.40643,10.38711 -0.77301,2.60842 -1.968,1.57427 -5.27683,-4.5685 -1.61218,-2.99303 -2.29643,-5.61548 -1.52043,-5.82646 0.11653,-0.0317 0.24744,-0.0278 0.39083,0.008 z m -20.96714,-3.62452 c 0.14485,0.0369 0.289,0.0815 0.43334,0.13249 0.76976,0.27226 1.53247,0.74566 2.3071,1.41911 l 2.84624,2.47315 -3.95775,1.5731 c -2.17652,0.86533 -5.468,1.12555 -7.31538,0.57808 -2.86022,-0.84764 -3.07157,-1.28688 -1.41301,-2.96512 2.68147,-2.71325 4.92656,-3.76325 7.09946,-3.21081 z m 117.27371,35.89308 c 5.90546,2.12042 14.88581,7.723656 17.51579,11.173776 1.51119,1.98245 1.40005,2.76969 -0.73622,5.22695 -2.05998,2.3695 -3.33996,2.62834 -7.07343,1.43201 -2.50734,-0.80344 -5.07113,-1.84308 -5.69711,-2.3117 -0.62599,-0.46862 -4.1998,-2.78433 -7.94124,-5.14625 -6.59411,-4.162776 -6.75231,-4.415486 -5.21067,-8.221776 1.46165,-3.60883 2.01385,-3.83732 6.82796,-2.83088 0.69062,0.14438 1.47088,0.37632 2.31492,0.67787 z m -12.27621,-2.64398 c 0.24017,0.0718 0.47929,0.30111 0.70186,0.71116 0.2846,0.52433 -0.1852,2.52232 -1.0451,4.44077 l -1.5635,3.4886 0.0182,-3.8834 c 0.0138,-2.90755 0.92558,-4.96294 1.84114,-4.76913 0.0159,0.004 0.0314,0.007 0.0474,0.012 z m -88.4577,-26.04762 c 2.62855,0.77897 6.50228,7.3485 5.77662,9.79712 -0.58375,1.96978 -4.74074,0.72376 -6.13104,-1.83732 -0.83956,-1.54676 -1.18008,-1.64767 -1.53368,-0.45451 -0.53049,1.79008 -1.35017,1.57401 -5.02314,-1.3277 -1.48427,-1.17261 -3.8675,-2.10981 -5.2945,-2.08238 -1.7177,0.033 -2.40704,-0.58012 -2.0411,-1.81492 0.68974,-2.32743 7.47965,-2.18032 8.76628,0.19008 1.53644,2.83063 3.17245,2.62538 3.11446,-0.39095 -0.0409,-2.12481 0.5278,-2.62421 2.3661,-2.07942 z m 82.7892,26.91818 c 1.2071,0.44231 1.15163,1.80717 0.9033,4.21761 -0.41691,4.04681 -1.34165,5.256496 -6.88787,9.020136 -7.11422,4.82768 -8.51884,4.78532 -11.17597,-0.34195 -1.00422,-1.93777 -2.70253,-4.436306 -3.77491,-5.553446 -1.70945,-1.78078 -0.75503,-2.36488 7.74727,-4.72999 7.99716,-2.2246 11.63621,-3.18108 13.18818,-2.61236 z M 126.90821,32.872517 c 1.10938,0.328767 3.65399,3.429592 5.65409,6.890545 2.00009,3.460949 4.51266,7.216998 5.58506,8.346982 1.07239,1.12998 1.35931,2.58214 0.6364,3.22793 -0.91879,0.82079 -3.10925,-0.35137 -7.27742,-3.894311 -7.37674,-6.270251 -18.75298,-11.036886 -25.44144,-10.660455 -2.70213,0.15208 -6.065452,1.499178 -7.473221,2.994123 l -2.55964,2.718747 0.858661,-2.966167 c 1.678771,-5.800066 4.5948,-7.069566 16.45801,-7.163847 6.34806,-0.05045 12.45013,0.177688 13.5595,0.506453 z m 86.6031,28.360117 -4.35347,0.61248 c -5.36136,0.75434 -11.97344,0.51369 -11.69538,-0.42459 0.28009,-0.9451 5.59601,-1.26045 11.32597,-0.67288 z M 94.030575,27.995753 c 2.177087,0.645185 2.297758,1.566495 0.816988,6.206706 -0.956456,2.997188 -2.407507,5.786496 -3.226136,6.19817 -0.818632,0.411684 -3.537262,0.584793 -6.039604,0.383726 -4.300327,-0.345549 -4.451062,-0.516098 -2.769977,-3.108539 4.249808,-6.553731 8.728099,-10.418168 11.218729,-9.680063 z M 366.09686,109.08978 c 1.33272,0.42864 3.04915,2.53413 4.99681,6.53074 5.32371,10.92428 3.15641,28.90899 -4.97965,41.31532 -1.91335,2.91759 -4.60797,6.19855 -5.98634,7.29096 -2.20092,1.74429 -2.01573,0.16907 1.5234,-12.94237 3.77712,-13.9931 3.92574,-15.5988 2.36559,-25.57941 -1.77276,-11.3407 -0.6487,-17.49296 2.08019,-16.61524 z M 218.57746,66.738914 c 4.22021,1.10508 8.97576,2.87629 13.9989,5.24456 3.35546,1.58204 12.19751,4.47406 19.64997,6.4263 37.27591,9.76478 49.67497,14.71014 50.35175,20.0818 0.22522,1.787676 1.33537,3.524706 2.46588,3.859736 2.22303,0.6588 5.1418,5.72524 4.51552,7.83854 -0.21204,0.7155 -0.007,3.4451 0.45565,6.06498 0.68714,3.89473 0.39686,5.21038 -1.58693,7.21768 -1.79864,1.81997 -2.26445,3.24364 -1.79921,5.50064 0.48689,2.36198 0.0734,3.34657 -1.84895,4.38997 -1.36279,0.73971 -2.40481,2.27025 -2.31602,3.40207 0.0888,1.13181 -1.17451,2.7809 -2.80584,3.66637 -1.63133,0.88547 -4.60913,3.52618 -6.61763,5.86737 -3.36446,3.92177 -4.05834,4.13651 -8.82707,2.72328 -4.17883,-1.2384 -5.31086,-1.07861 -5.87518,0.82561 -0.91013,3.0711 -5.89749,5.42077 -9.34038,4.40046 -1.4917,-0.44207 -3.39672,-0.1877 -4.23203,0.56699 -2.72725,2.46405 -9.04452,3.84238 -12.67938,2.76517 -2.20591,-0.65372 -4.97978,-0.15139 -7.29585,1.32332 -2.05528,1.30865 -5.22131,2.82557 -7.03476,3.37055 -3.07936,0.9254 -3.20097,0.80687 -1.85918,-1.78952 0.79019,-1.52903 0.92256,-3.35485 0.29415,-4.0583 -0.7226,-0.80889 -1.54207,0.0385 -2.22747,2.30588 -0.59604,1.97186 -1.90403,4.28156 -2.90794,5.13133 -1.31594,1.1139 -1.29497,0.51472 0.0787,-2.1421 3.73404,-7.22201 -5.43037,-11.95431 -10.52611,-5.4356 -4.22705,5.40744 -5.40976,6.34538 -7.72744,6.12719 -1.24811,-0.1175 -4.10324,0.77995 -6.34437,1.99641 -3.27543,1.77788 -4.48338,1.80866 -6.1618,0.14991 -1.3885,-1.37226 -3.31089,-1.97314 -5.73764,-1.79 -2.89519,0.21817 -3.53315,-0.11403 -3.08973,-1.61029 0.30739,-1.03726 -0.24627,-3.36612 -1.22847,-5.17566 -1.50132,-2.76593 -2.36104,-3.20849 -5.40516,-2.7813 -1.99153,0.27946 -4.29138,1.49727 -5.11047,2.70633 -2.83819,4.18929 -12.68166,8.47651 -16.71671,7.28071 -3.06874,-0.90943 -3.6378,-1.67522 -2.98085,-4.01235 0.78521,-2.79353 0.6904,-2.79947 -2.85399,-0.15114 -3.01891,2.2557 -4.64599,2.4488 -9.23493,1.08885 -5.47356,-1.6221 -7.84799,-4.05607 -4.77356,-4.89196 0.85901,-0.23356 1.36293,-1.15121 1.12162,-2.03878 -0.27147,-0.99845 -1.56671,-0.77891 -3.39931,0.57543 -1.88166,1.39057 -4.86669,1.86468 -8.18287,1.29878 -6.31987,-1.07851 -8.60905,-3.45591 -6.57203,-6.82443 2.05104,-3.39169 0.21853,-5.00286 -2.72625,-2.39686 -2.71572,2.4033 -4.36854,2.18712 -8.09834,-1.05548 -3.80987,-3.31218 -4.71782,-7.68694 -2.1363,-10.29907 2.58297,-2.61361 1.3253,-3.15717 -2.76487,-1.19421 -2.26239,1.08576 -3.49869,0.96621 -4.74729,-0.45758 -3.05839,-3.48747 -3.34713,-6.82725 -0.78383,-9.09566 3.051,-2.70001 3.05932,-2.83536 0.2844,-4.51342 -2.88251,-1.74311 -1.34896,-8.49148 2.28272,-10.04673 3.36794,-1.44231 3.4834,-3.0109 0.22883,-3.11615 -3.93213,-0.12717 -2.48986,-3.79958 2.5717,-6.546946 3.75986,-2.0408 4.07598,-2.84357 1.25026,-3.174 -0.60822,-0.0711 -0.53889,-1.35851 0.15336,-2.86148 0.79153,-1.71851 2.49873,-2.66141 4.60069,-2.53963 2.3118,0.13393 4.03646,-0.9605 5.59497,-3.55075 2.38384,-3.96196 7.60338,-6.4573 11.24924,-5.37684 1.20239,0.35633 2.85991,-0.3445 3.68261,-1.5589 1.52652,-2.25329 10.96353,-3.83389 15.27016,-2.55761 2.9893,0.88589 19.58871,-4.21454 22.60439,-6.94553 2.79451,-2.53072 13.08753,-4.88703 21.3616,-4.88971 3.44219,-10e-4 8.70698,-0.2552 11.69918,-0.56431 2.88355,-0.29788 6.56965,0.141 10.78989,1.24608 z m -1.97681,3.52908 c -0.63049,-0.19102 -1.99547,-0.10026 -3.64066,0.29 -3.95243,0.93762 -5.30933,2.97634 -5.40794,8.11628 -0.0232,1.20864 5.8146,1.70138 8.95901,0.75647 5.85093,-1.75833 5.0602,-3.47082 -0.9132,-1.97771 -2.92647,0.73147 -5.54317,0.91911 -5.81538,0.41758 -0.27222,-0.50152 1.43974,-1.28218 3.804,-1.73478 4.20907,-0.80575 9.63568,-3.5959 7.95968,-4.09259 -0.46611,-0.13813 -2.91313,0.49924 -5.43936,1.41719 -2.52623,0.91794 -4.83528,1.22445 -5.1311,0.67943 -0.29583,-0.54501 0.85099,-1.27745 2.55001,-1.62768 1.69902,-0.35023 3.2461,-1.16516 3.43745,-1.81083 0.0598,-0.20177 -0.0759,-0.34675 -0.36251,-0.43336 z m 59.72646,18.55567 c -0.50472,-0.15896 -1.10455,-0.0388 -1.55376,0.36252 -0.6534,0.5837 -0.28977,1.32583 0.8064,1.65068 2.2455,0.66546 2.80395,-0.004 1.35554,-1.62518 -0.16708,-0.18704 -0.37875,-0.31582 -0.60818,-0.38802 z m -6.85582,-1.90748 c -0.2742,-0.0719 -0.60429,-0.0987 -0.97135,-0.0699 -1.1746,0.0922 -2.2025,0.3932 -2.28439,0.66954 -0.0819,0.27633 0.71417,0.75758 1.76884,1.07014 1.05466,0.31255 2.08256,0.0115 2.28439,-0.66954 0.13876,-0.46822 -0.19423,-0.84213 -0.79749,-1.00024 z M 112.27301,40.965644 c 6.72751,1.958982 15.12473,6.283199 20.19287,11.00767 5.63838,5.25602 7.95752,10.19888 5.42788,11.57195 -0.51551,0.27981 -8.18397,-1.48837 -17.04087,-3.92971 l -16.10382,-4.43832 0.90735,-3.06174 c 0.60587,-2.044409 -0.15685,-4.236986 -2.29469,-6.59574 -3.04463,-3.359238 -3.05904,-3.611626 -0.31324,-5.102019 1.75328,-0.951663 5.18801,-0.627452 9.22452,0.547909 z m 148.8086,44.31778 c -1.58801,-0.47061 -3.85816,-0.72553 -5.88162,-0.48615 -2.32298,0.2748 -1.97085,0.63073 1.81048,1.83008 2.58051,0.81846 5.21688,1.01735 5.85978,0.44302 0.70526,-0.63003 -0.20062,-1.31634 -1.78864,-1.78695 z m 95.48143,29.381916 c 0.86432,0.27951 1.78302,1.34813 2.77733,3.17998 1.55831,2.87093 2.01415,1.11403 -0.37903,3.95982 -0.62573,0.74405 -1.19237,0.50433 -1.74099,2.10781 -0.54863,1.60349 -2.84018,5.22611 -4.72479,8.4919 l -3.42643,5.93917 1.19249,-7.29586 c 1.94467,-11.89062 3.91185,-17.15561 6.30142,-16.38282 z M 203.17613,69.402274 c -1.18576,-0.36309 -2.68128,-0.19054 -3.32419,0.38379 -1.47939,1.32158 0.2117,1.82274 3.19471,0.94676 1.96903,-0.57822 1.98743,-0.76159 0.12948,-1.33055 z m 82.66552,24.62036 2.31047,3.42867 c 1.27044,1.88572 2.65241,3.243056 3.0703,3.016236 1.3976,-0.758606 0.01,-3.257626 -2.69914,-4.859806 z M 144.68347,53.481564 c 2.10492,0.57551 4.68154,1.94479 7.12336,4.09108 1.9121,1.68068 5.72769,3.90725 8.47897,4.94708 4.78836,1.80972 4.94561,2.07743 3.70657,6.25839 -0.76794,2.59132 -2.08709,4.39364 -3.24478,4.43261 -1.07328,0.0361 -1.42885,-0.4005 -0.78972,-0.97146 0.72229,-0.64525 -1.53837,-1.77907 -5.97534,-2.9951 l -7.13866,-1.95666 -0.25565,-5.39257 c -0.27583,-5.83003 -0.83862,-7.62022 -2.17074,-6.89715 -0.4677,0.25386 -0.58606,2.91662 -0.26192,5.91548 0.54228,5.01696 0.37336,5.56545 -2.13282,6.88071 -2.5097,1.31687 -2.64492,1.23473 -1.71509,-1.05217 1.85716,-4.56771 1.99587,-6.84352 0.57914,-9.45361 -1.91115,-3.52096 0.28847,-4.76575 3.79668,-3.80663 z m 26.6645,9.2486 c 1.78117,0.52786 2.97734,1.68706 2.70099,2.61957 -0.27272,0.92027 -1.6469,2.54754 -3.05351,3.61538 -2.46668,1.87261 -2.56879,1.79845 -2.86525,-2.06527 -0.40787,-5.31537 -0.45221,-5.25729 3.21777,-4.16968 z m 23.80105,7.05351 c -0.7031,-0.20837 -1.80481,0.0896 -2.44772,0.66391 -0.64291,0.57432 -0.59339,1.21547 0.10971,1.42384 0.70311,0.20836 1.80536,-0.0914 2.44828,-0.66577 0.64291,-0.57434 0.59284,-1.21362 -0.11027,-1.42198 z m 45.30626,13.42662 c -0.31004,-0.0919 -1.08946,0.30157 -1.73238,0.87591 -0.64291,0.57432 -0.55998,1.22537 0.18462,1.44603 0.74461,0.22067 1.52458,-0.17465 1.73295,-0.87776 0.20837,-0.70311 0.12487,-1.35229 -0.18519,-1.44418 z m -15.17609,-4.32432 c -0.40166,-0.13718 -2.28843,0.40362 -5.65981,1.62483 -2.90344,1.05169 -6.35324,1.5945 -7.66441,1.20593 -1.31107,-0.38854 -2.22228,-0.11694 -2.02644,0.60338 0.64665,2.3784 6.84681,2.00738 11.57621,-0.69243 2.94501,-1.68113 4.202,-2.59562 3.77445,-2.74171 z m 16.59754,8.91752 c -0.31006,-0.0919 -1.08948,0.30157 -1.73239,0.87591 -0.64291,0.57432 -0.55998,1.22537 0.18464,1.44604 0.7446,0.22066 1.52456,-0.17466 1.73293,-0.87777 0.20837,-0.70311 0.12489,-1.35229 -0.18518,-1.44418 z m 44.10404,13.070346 c -0.7446,-0.22067 -1.52402,0.17279 -1.73239,0.8759 -0.20837,0.7031 -0.12543,1.35415 0.18464,1.44604 0.31004,0.0919 1.09002,-0.30342 1.73293,-0.87776 0.64291,-0.57434 0.55943,-1.22352 -0.18518,-1.44418 z m 8.73579,2.58887 c -1.34026,-0.39719 -2.03397,1.31327 -1.17429,2.89707 1.09262,2.01298 2.65454,1.74732 2.48427,-0.42288 -0.0922,-1.1746 -0.6821,-2.28812 -1.30998,-2.47419 z M 96.864344,44.842979 c 4.748636,1.391833 7.381366,4.681134 5.140866,6.422695 -1.48572,1.15487 -1.25804,1.10342 -28.911594,6.46567 -11.943991,2.31603 -21.932926,4.14595 -22.197596,4.06752 -0.26467,-0.0784 -1.113833,-1.4602 -1.886849,-3.07091 -1.301501,-2.71189 -1.177063,-3.11161 1.673597,-5.41361 3.99354,-3.224945 6.007438,-4.032975 17.832879,-7.149564 10.96373,-2.889484 21.348867,-3.373481 28.348697,-1.321801 z m 98.068676,29.264575 c -2.06204,-0.57991 -6.68114,-0.37289 -6.9631,0.57856 -0.17494,0.59031 1.6182,0.98342 3.98503,0.87133 2.36683,-0.11208 4.12779,-0.52739 3.91355,-0.92211 -0.11853,-0.21835 -0.45962,-0.39396 -0.93548,-0.52778 z m 71.41683,22.33792 c -0.7031,-0.20837 -1.4478,0.19741 -1.65617,0.90051 -0.20837,0.70311 0.195,1.44911 0.8981,1.65748 0.70312,0.20837 1.44967,-0.19686 1.65803,-0.89996 0.20837,-0.70311 -0.19684,-1.44966 -0.89996,-1.65803 z m -41.5441,-12.12633 c -0.11489,-0.033 -0.25063,-0.0383 -0.40207,-0.0112 -0.60582,0.10859 -4.20461,0.63587 -7.99677,1.17263 -3.79214,0.53676 -6.98827,1.29585 -7.10383,1.68578 -0.33313,1.1241 6.91712,1.21326 11.43122,0.14055 2.26272,-0.5377 4.26145,-1.47739 4.44226,-2.0875 0.13561,-0.45761 -0.0259,-0.80209 -0.37081,-0.90027 z m 4.09273,2.41884 c -0.70312,-0.20837 -1.44967,0.19686 -1.65803,0.89997 -0.20837,0.70311 0.1974,1.4478 0.90051,1.65617 0.70311,0.20836 1.44911,-0.19499 1.65748,-0.89811 0.20837,-0.7031 -0.19686,-1.44966 -0.89996,-1.65803 z m 5.11413,1.51559 c -0.70311,-0.20837 -1.44967,0.19686 -1.65803,0.89996 -0.20837,0.70312 0.19741,1.44781 0.90051,1.65617 0.70311,0.20837 1.44725,-0.19554 1.65562,-0.89865 0.20837,-0.70311 -0.195,-1.44912 -0.8981,-1.65748 z m -41.58029,-10.86998 c -0.92951,-0.27546 -2.42124,-0.27465 -3.92169,0.16598 -1.85752,0.54547 -1.76199,0.83147 0.51038,1.52221 1.53732,0.46727 3.32226,0.37846 3.96518,-0.19587 0.74413,-0.66476 0.37564,-1.21686 -0.55387,-1.49232 z m 104.34897,33.608956 c -0.24182,-0.0633 -0.53129,-0.0243 -0.85573,0.15178 -0.54701,0.29691 -0.76012,1.40273 -0.4735,2.45696 0.41933,1.54153 0.71991,1.63158 1.53764,0.46179 0.91196,-1.30523 0.65512,-2.84391 -0.20841,-3.07053 z M 253.31684,98.472314 c -4.24964,-1.29537 -8.2854,-1.8552 -8.96924,-1.24432 -0.79621,0.71128 -0.17566,1.14477 1.72646,1.20629 1.63366,0.0528 2.84446,0.52008 2.69101,1.03786 -0.42804,1.444386 8.48501,3.414836 10.49977,2.321246 1.26704,-0.68773 -0.44463,-1.64352 -5.948,-3.321076 z m 28.6078,8.616516 c -0.36385,-0.087 -0.6849,0.11832 -0.82713,0.59824 -0.22066,0.74461 0.17466,1.52457 0.87777,1.73294 0.7031,0.20836 1.35229,0.12488 1.44418,-0.18519 0.0919,-0.31004 -0.30158,-1.08947 -0.87591,-1.73238 -0.17947,-0.20091 -0.36698,-0.3309 -0.54588,-0.39197 -0.0246,-0.008 -0.0489,-0.0155 -0.073,-0.0216 z M 188.5428,80.341754 c -1.75778,-0.52092 -3.72052,-0.47814 -4.36343,0.0962 -0.66023,0.5898 0.22032,1.45662 2.02542,1.99157 1.75777,0.52092 3.72294,0.47683 4.36585,-0.0975 0.66022,-0.58979 -0.22275,-1.45531 -2.02784,-1.99026 z m 80.95166,23.990226 c -0.74461,-0.22066 -1.16833,0.2782 -0.94215,1.1101 0.22617,0.83188 0.66481,1.58834 0.97487,1.68023 0.31007,0.0919 0.73433,-0.40885 0.9427,-1.11196 0.20837,-0.70311 -0.23082,-1.4577 -0.97542,-1.67837 z m -33.46588,-8.528386 c -0.7446,-0.22067 -1.52457,0.17466 -1.73294,0.87776 -0.20836,0.70311 -0.12542,1.35416 0.18463,1.44604 0.31006,0.0919 1.09002,-0.30344 1.73294,-0.87776 0.64291,-0.57433 0.55997,-1.22538 -0.18463,-1.44604 z m 80.79698,24.333456 c 0.63089,0.14723 1.4186,0.53715 2.50478,1.12324 3.51128,1.89463 10.05197,11.2011 9.40557,13.38225 -0.16232,0.54774 -1.44488,0.12435 -2.85026,-0.94043 -3.69147,-2.79682 -7.97537,-2.05239 -12.75829,2.22031 -2.3022,2.05662 -4.6249,3.61008 -5.16204,3.4509 -1.14358,-0.33891 2.26919,-10.50451 5.43535,-16.18929 1.40361,-2.52016 2.03693,-3.37091 3.42489,-3.04698 z m -56.78504,-16.81616 c -1.55846,-0.36089 -4.11749,0.15308 -4.43262,1.21644 -0.4318,1.45705 0.98722,1.8414 3.82563,1.038 1.22815,-0.34759 1.9974,-1.06222 1.71148,-1.58897 -0.17715,-0.32638 -0.585,-0.54517 -1.10449,-0.66547 z m 43.28753,13.81839 c -0.70312,-0.20837 -1.44967,0.19686 -1.65803,0.89996 -0.20837,0.70312 0.1974,1.44781 0.90051,1.65618 0.70311,0.20836 1.44911,-0.19499 1.65748,-0.89811 0.20837,-0.7031 -0.19686,-1.44966 -0.89996,-1.65803 z m -37.5233,-11.07327 c -1.98375,-0.47678 -8.11607,0.83968 -8.4169,1.85481 -0.17492,0.59024 0.19348,1.22458 0.81869,1.40987 1.36484,0.40447 9.04739,-2.76888 7.77612,-3.21196 -0.055,-0.0194 -0.11403,-0.0369 -0.17791,-0.0527 z M 116.29997,62.564544 c 13.02219,3.7557 20.29251,6.3997 21.32426,7.75361 1.02351,1.34311 2.72109,1.96722 4.90688,1.8025 1.83876,-0.13856 5.15725,0.35394 7.37355,1.09533 3.29523,1.10231 2.65669,1.28015 -3.50705,0.97333 -5.09598,-0.25369 -8.74244,0.46378 -11.25607,2.21733 -3.38764,2.36322 -3.94324,2.36224 -6.24994,-0.0269 -2.58202,-2.67434 -8.33213,-5.0306 -26.6941,-10.93595 -8.300987,-2.66966 -10.961325,-3.02991 -13.475241,-1.82188 -4.135061,1.98704 -6.304822,1.2168 -5.377742,-1.91149 0.500349,-1.68836 2.822141,-2.91688 6.974018,-3.68801 5.524607,-1.02608 8.441794,-0.51635 25.981435,4.54218 z m 51.29205,15.74035 c -0.70311,-0.20837 -1.80481,0.0896 -2.44773,0.66391 -0.64291,0.57433 -0.59339,1.21548 0.10971,1.42384 0.70311,0.20837 1.80537,-0.0914 2.44828,-0.66577 0.64291,-0.57434 0.59284,-1.21361 -0.11026,-1.42198 z m 44.02912,13.04814 c -0.31006,-0.0919 -1.08948,0.30157 -1.73239,0.87591 -0.64291,0.57432 -0.55998,1.22537 0.18464,1.44604 0.7446,0.22066 1.52456,-0.17466 1.73293,-0.87777 0.20837,-0.70311 0.12489,-1.35229 -0.18518,-1.44418 z m -25.28091,-7.41465 c -1.05115,-0.25978 -2.58733,-0.27965 -4.57641,-0.0443 -2.51157,0.29711 -2.39788,0.51939 0.88165,1.71983 l 3.76354,1.37812 -3.96944,-0.29837 c -2.18295,-0.16377 -4.40296,0.32428 -4.93333,1.08436 -0.71979,1.03155 0.19976,1.39086 3.62657,1.42104 2.52495,0.0222 4.67122,0.0643 4.76964,0.0935 l 0.002,5.6e-4 0.002,5.5e-4 0.002,5.5e-4 0.002,-0.001 c 0.13244,-0.0352 0.83767,-1.04815 1.59777,-2.30508 0.87563,-1.44799 0.5927,-2.44107 -0.74725,-2.92262 -0.13024,-0.0469 -0.27064,-0.0896 -0.42079,-0.12675 z m 110.75688,33.261046 c -0.49438,-0.12845 -0.95451,0.87158 -1.60864,3.24912 -1.14626,4.16599 -1.0822,4.28394 1.05018,1.93478 1.67891,-1.84955 1.9976,-3.00501 1.22078,-4.43556 -0.23762,-0.43778 -0.45359,-0.69408 -0.66232,-0.74834 z M 217.73343,93.734814 c -0.34176,-0.0871 -0.70688,-0.12124 -1.07469,-0.0924 -3.49716,0.27439 -3.61888,2.65156 -0.1324,2.58452 2.00018,-0.0385 2.54929,0.3224 1.6784,1.10038 -1.47322,1.31607 -1.0249,1.59131 2.17775,1.34003 1.23865,-0.0972 2.41454,-0.72374 2.61291,-1.39312 0.19837,-0.66938 -0.39598,-1.01161 -1.32087,-0.76016 -0.9249,0.25147 -1.89816,-0.33378 -2.16097,-1.30042 -0.16426,-0.60415 -0.72775,-1.10689 -1.4466,-1.37391 -0.10775,-0.0403 -0.21976,-0.0754 -0.33353,-0.10496 z m 48.17117,15.719936 c -0.50623,-0.16576 -1.69032,0.0447 -3.89417,0.45118 -6.75582,1.24589 -7.11638,1.74032 -1.74919,2.3967 2.22805,0.27247 3.29276,0.44076 3.33371,0.61517 0.0217,0.14334 -0.64623,0.29368 -1.92893,0.508 -1.81058,0.30254 -3.45745,1.10844 -3.65939,1.78986 -0.71438,2.41058 6.26007,-0.83236 7.51083,-3.49224 0.66386,-1.41178 0.96085,-2.08077 0.38714,-2.26867 z m 16.73219,7.1159 c -0.70311,-0.20837 -1.44911,0.19499 -1.65748,0.89811 -0.20836,0.7031 0.19685,1.44966 0.89997,1.65803 0.7031,0.20837 1.44966,-0.19686 1.65803,-0.89996 0.20837,-0.70312 -0.19741,-1.44781 -0.90052,-1.65618 z m 7.59537,2.25091 c -0.74461,-0.22067 -1.16832,0.2782 -0.94215,1.11009 0.22618,0.83189 0.66482,1.58835 0.97487,1.68024 0.31006,0.0919 0.73433,-0.40886 0.9427,-1.11196 0.20837,-0.70311 -0.23082,-1.4577 -0.97542,-1.67837 z M 225.09203,99.582314 c -1.05122,-0.32416 -2.94212,-0.27853 -4.20196,0.10125 -2.03611,0.613806 -2.11877,0.892736 -0.74586,2.516806 2.08778,2.46973 5.56048,3.41148 7.19532,1.95105 0.95408,-0.85228 0.19482,-1.2503 -2.63718,-1.38451 -3.7923,-0.17971 -3.82912,-0.24467 -0.83603,-1.39261 2.3461,-0.89981 2.65472,-1.3514 1.22571,-1.791986 z m 22.72498,8.058716 c -0.74461,-0.22067 -1.52457,0.17466 -1.73293,0.87776 -0.20837,0.70311 -0.12544,1.35415 0.18462,1.44604 0.31006,0.0919 1.09004,-0.30343 1.73294,-0.87776 0.64292,-0.57433 0.55999,-1.22537 -0.18463,-1.44604 z M 156.25035,80.549824 c -0.73788,-0.24297 -2.7088,0.0727 -4.37955,0.7005 -1.67075,0.62783 -2.43347,1.34051 -1.69559,1.58348 0.73788,0.24298 2.7088,-0.0727 4.37955,-0.70049 1.67075,-0.62784 2.43347,-1.34052 1.69559,-1.58349 z m 86.07536,26.855166 c -0.7446,-0.22066 -1.52457,0.17466 -1.73294,0.87777 -0.20837,0.70311 -0.12488,1.35229 0.18519,1.44418 0.31004,0.0919 1.08946,-0.30157 1.73238,-0.87591 0.6429,-0.57433 0.55997,-1.22537 -0.18463,-1.44604 z m -40.5134,-11.541786 c -0.36386,-0.087 -0.6849,0.11832 -0.82712,0.59824 -0.22067,0.74461 0.17465,1.52457 0.87776,1.73294 0.7031,0.20836 1.35229,0.12488 1.44418,-0.18519 0.0919,-0.31004 -0.30158,-1.08947 -0.8759,-1.73238 -0.17947,-0.20091 -0.36699,-0.3309 -0.54589,-0.39197 -0.0246,-0.008 -0.0489,-0.0155 -0.073,-0.0216 z m 8.94927,2.65213 c -0.36385,-0.087 -0.6849,0.11832 -0.82713,0.59824 -0.22067,0.74461 0.1728,1.524026 0.87591,1.732386 0.7031,0.20837 1.35415,0.12544 1.44604,-0.18463 0.0919,-0.31004 -0.30344,-1.090026 -0.87777,-1.732926 -0.17948,-0.20092 -0.36511,-0.33035 -0.54402,-0.39142 -0.0247,-0.008 -0.0489,-0.0155 -0.073,-0.0216 z m -20.03633,-5.60373 c -0.33932,-0.0852 -0.73219,-0.14002 -1.15834,-0.15382 -1.51518,-0.049 -2.81977,0.13208 -2.89965,0.40163 -0.0799,0.26955 1.00508,0.82955 2.41129,1.24628 1.40622,0.41674 2.71024,0.23751 2.8991,-0.39977 0.11804,-0.3983 -0.26094,-0.76692 -0.93219,-0.99943 -0.10063,-0.035 -0.20708,-0.0666 -0.32021,-0.0949 z M 79.525469,60.684514 c 0.925772,0.31691 0.890841,1.51698 0.172773,3.94 -1.458139,4.92029 -5.389951,5.29743 -5.187273,0.49779 0.09801,-2.32104 0.870056,-3.73582 2.252044,-4.12791 1.306813,-0.37076 2.206993,-0.50003 2.762456,-0.30988 z M 276.00763,120.16734 c -0.70311,-0.20837 -1.44781,0.19741 -1.65617,0.90052 -0.20837,0.7031 0.195,1.44911 0.8981,1.65748 0.70311,0.20837 1.44967,-0.19686 1.65803,-0.89997 0.20837,-0.7031 -0.19685,-1.44966 -0.89996,-1.65803 z M 102.27182,68.753634 c 7.78862,2.36126 14.50578,6.84052 13.42068,10.50204 -0.57095,1.92662 -2.75339,2.18656 -11.89349,1.41934 -6.156924,-0.51682 -11.472888,-1.06037 -11.811939,-1.20674 -0.339052,-0.14637 -1.452178,-2.35617 -2.474075,-4.91126 -1.021921,-2.55504 -2.490541,-4.83262 -3.262732,-5.06146 -0.772193,-0.22884 -0.461289,1.52734 0.68935,3.9016 l 2.091947,4.31726 -3.266313,-4.23138 c -1.796185,-2.32698 -3.216637,-4.39901 -3.155874,-4.60405 0.06076,-0.20504 2.733906,-0.85906 5.939296,-1.4544 3.990749,-0.74119 9.04998,-0.0877 13.72315,1.32905 z M 226.0491,106.16868 c -0.4152,-0.13984 -0.93883,-0.23077 -1.52308,-0.24969 -1.60236,-0.0518 -2.76926,0.71625 -2.68686,1.76639 0.0801,1.02109 -0.63517,1.96626 -1.58854,2.10208 -0.95335,0.1358 -0.53176,0.42002 0.93526,0.63161 1.46701,0.21161 2.72523,-0.34324 2.79753,-1.23247 0.0723,-0.88921 0.70631,-1.4448 1.40941,-1.23643 0.70312,0.20837 1.43366,-0.14284 1.62252,-0.78012 0.11804,-0.39831 -0.27426,-0.76821 -0.96624,-1.00137 z m 68.47801,20.87828 c -1.02757,-0.30452 -2.9882,0.73515 -4.3575,2.31021 -3.11194,3.57954 -0.58185,3.93662 3.52937,0.49796 2.36193,-1.97533 2.46541,-2.32296 0.82813,-2.80817 z m 28.07812,8.32102 c 4.96212,1.47054 9.09424,10.97609 8.49439,19.54331 -0.76045,10.86028 -3.11886,15.5255 -8.46914,16.75487 -7.2081,1.65624 -9.96041,1.23919 -12.4441,-1.88501 -1.27486,-1.6036 -3.73317,-3.79912 -5.46346,-4.88049 -3.70787,-2.31729 -2.95313,-5.12315 3.47875,-12.94144 2.30181,-2.79798 4.2939,-6.61496 4.48759,-8.59885 0.48101,-4.92659 5.79812,-9.21272 9.91597,-7.99239 z M 121.12221,75.678354 c 4.06575,1.23368 6.44777,3.97072 4.02866,4.62844 -0.98812,0.26865 -3.43301,1.96837 -5.43408,3.77769 l -3.63921,3.28902 1.19662,-4.05159 c 0.65728,-2.22844 1.11548,-5.06383 1.01829,-6.30246 -0.13054,-1.66387 0.60788,-2.0153 2.82972,-1.3411 z m 140.9963,41.809056 c -0.73789,-0.24298 -2.70825,0.0708 -4.37899,0.69861 -1.67075,0.62783 -2.43347,1.34051 -1.6956,1.58349 0.73789,0.24297 2.70825,-0.0708 4.37899,-0.69862 1.67075,-0.62782 2.43347,-1.34051 1.6956,-1.58348 z M 146.28346,83.283664 c -0.25596,-0.0552 -1.01713,0.0801 -2.3384,0.35 -1.8318,0.37413 -3.40992,0.94807 -3.50678,1.27489 -0.40127,1.35403 2.23218,1.14728 4.45256,-0.34885 1.21638,-0.81961 1.72172,-1.20501 1.39262,-1.27604 z m 139.26927,42.495046 c -0.7446,-0.22067 -1.52402,0.17279 -1.73239,0.8759 -0.20836,0.70311 -0.12542,1.35416 0.18463,1.44604 0.31006,0.0919 1.09002,-0.30344 1.73294,-0.87776 0.64291,-0.57434 0.55942,-1.22352 -0.18518,-1.44418 z M 186.69649,96.580194 c -1.91891,-0.62239 -3.66025,-0.55807 -3.86862,0.14505 -0.44466,1.50044 0.53916,1.792 4.47556,1.32634 2.55412,-0.30215 2.48468,-0.46861 -0.60694,-1.47139 z m 80.58879,24.004916 c -0.26812,-0.0661 -0.52649,-0.0458 -0.74713,0.074 -0.67241,0.36498 -0.5446,1.42217 0.28362,2.3493 1.95021,2.18308 3.34917,1.42531 1.99006,-1.07862 -0.36074,-0.66461 -0.89603,-1.13847 -1.41045,-1.31023 -0.0387,-0.0125 -0.0778,-0.0251 -0.1161,-0.0344 z M 213.47336,105.8071 c -0.63955,-0.18953 -1.0867,0.61289 -0.99489,1.78299 0.0918,1.1701 0.78759,1.95988 1.54589,1.75372 1.586,-0.43121 1.1819,-3.02315 -0.551,-3.53671 z m 106.20399,31.47383 c -1.84915,-0.548 -1.93931,0.3302 -0.52038,5.0485 0.91853,3.05437 0.43725,6.73197 -1.91738,14.67733 -3.10163,10.46601 -3.06372,13.60045 0.10048,8.43887 4.81473,-7.85402 6.40021,-26.96064 2.33728,-28.1647 z M 155.67967,90.071124 c -0.7446,-0.22066 -1.52458,0.17466 -1.73294,0.87777 -0.20837,0.70311 -0.12487,1.3523 0.18518,1.44418 0.31004,0.0919 1.08946,-0.30157 1.73238,-0.87591 0.64291,-0.57432 0.55998,-1.22537 -0.18462,-1.44604 z m 17.2581,5.11449 c -0.31006,-0.0919 -1.09004,0.30343 -1.73294,0.87776 -0.64292,0.57434 -0.55943,1.22352 0.18518,1.44418 0.7446,0.22067 1.52401,-0.17279 1.73238,-0.8759 0.20837,-0.70311 0.12544,-1.35416 -0.18462,-1.44604 z M 276.3347,125.82755 c -2.26164,-0.67024 -3.07036,1.40708 -1.10807,2.8454 0.78546,0.57574 1.94251,0.92591 2.57174,0.78048 1.70504,-0.3946 0.65379,-2.99837 -1.46367,-3.62588 z m -17.75605,-4.48592 c -0.64534,-0.21388 -2.18876,-0.13291 -3.85019,0.23402 -2.15543,0.47604 -2.91363,1.06976 -1.80635,1.41417 2.27434,0.70728 6.55625,-0.33803 5.95109,-1.45293 -0.0439,-0.0808 -0.14563,-0.1459 -0.29455,-0.19526 z M 45.48435,58.805794 c 3.830766,1.13526 1.463682,4.68685 -14.671222,22.02428 -7.512222,8.07209 -13.885782,15.72731 -14.163264,17.01078 -0.277487,1.2835 -1.117732,2.15197 -1.867482,1.92978 -2.702275,-0.80083 5.22339,-19.41316 11.167984,-26.22606 8.255476,-9.4613 16.459,-15.65006 19.533984,-14.73878 z m 249.79866,74.028456 c -0.31005,-0.0919 -1.08947,0.30157 -1.73239,0.87591 -0.6429,0.57433 -0.55997,1.22537 0.18464,1.44604 0.7446,0.22067 1.52456,-0.17466 1.73293,-0.87777 0.20837,-0.70311 0.12488,-1.35229 -0.18518,-1.44418 z m -54.87058,-16.23047 c -0.78173,-0.25733 -0.66445,0.25694 0.0989,1.89325 1.42083,3.04552 3.29938,3.91611 3.2186,1.49164 -0.0322,-0.96561 -1.03391,-2.26218 -2.22595,-2.88213 -0.4694,-0.24412 -0.83102,-0.41698 -1.09159,-0.50276 z M 131.56284,84.358154 c -0.70311,-0.20837 -2.30675,-0.0785 -3.5634,0.2905 -1.25664,0.36902 -1.70905,0.84206 -1.00594,1.05043 0.70311,0.20837 2.30729,0.0767 3.56394,-0.29236 1.25665,-0.36903 1.70851,-0.8402 1.0054,-1.04857 z m 50.30512,15.0425 c -0.69256,-0.21463 -1.4558,-0.35915 -2.12572,-0.38144 -1.33991,-0.0445 -0.71728,0.45167 1.38432,1.102856 2.10159,0.65118 3.1981,0.68906 2.43639,0.0824 -0.38087,-0.303336 -1.00242,-0.589216 -1.69499,-0.803796 z m -43.75354,-12.36961 c -0.65469,-0.21019 -2.71978,0.28795 -4.98257,1.2368 -2.58606,1.08441 -4.12946,2.1493 -3.42923,2.36735 1.79383,0.55852 9.1733,-2.41835 8.60232,-3.47028 -0.0324,-0.0597 -0.097,-0.10386 -0.19052,-0.13387 z m 83.28705,25.588826 c -1.44046,-0.41958 -4.41049,0.22063 -4.72685,1.28815 -0.19353,0.65302 1.0381,0.89913 2.7382,0.54868 1.69902,-0.35023 2.9105,-0.96646 2.69156,-1.36981 -0.11805,-0.21747 -0.3705,-0.37018 -0.70291,-0.46702 z M 162.14128,95.652794 c -0.50392,-0.1727 -1.13306,-0.30783 -1.82956,-0.37718 -1.85734,-0.1849 -3.44113,-0.11524 -3.52102,0.15434 -0.0799,0.2696 1.29155,0.91646 3.04931,1.43738 1.75777,0.52092 3.34341,0.45182 3.52288,-0.15378 0.11217,-0.37851 -0.38175,-0.77287 -1.22161,-1.06076 z m 26.84127,8.459676 c -0.70311,-0.20837 -1.44781,0.19741 -1.65617,0.90052 -0.20837,0.70311 0.19555,1.44725 0.89865,1.65562 0.70311,0.20836 1.44911,-0.19499 1.65748,-0.89811 0.20837,-0.7031 -0.19686,-1.44966 -0.89996,-1.65803 z m -7.96275,-2.29663 c -0.9295,-0.27546 -2.42124,-0.27464 -3.92169,0.16597 -1.85752,0.54548 -1.76143,0.82961 0.51095,1.52035 1.53731,0.46726 3.3217,0.38033 3.96462,-0.194 0.74413,-0.66475 0.37563,-1.21685 -0.55388,-1.49232 z M 81.40569,72.610704 c 4.479744,1.61054 4.896706,5.78129 -1.244749,7.8365 -2.721099,0.9106 -11.347411,4.94845 -19.169421,8.97186 -13.62859,7.01015 -17.242326,7.77969 -20.268012,4.3134 -4.18997,-4.80012 21.026399,-20.46392 34.941282,-21.70473 2.303348,-0.2054 4.247651,0.0461 5.7409,0.58297 z m 44.63346,14.23966 c -0.74461,-0.22067 -1.52402,0.17279 -1.73239,0.87591 -0.20837,0.7031 -0.12544,1.35415 0.18462,1.44603 0.31006,0.0919 1.09004,-0.30343 1.73294,-0.87776 0.64292,-0.57433 0.55943,-1.22351 -0.18517,-1.44418 z m 160.56727,48.110086 c -0.44602,-0.14052 -1.90509,0.40176 -4.34846,1.66103 -2.70821,1.39575 -5.05746,2.98802 -5.2203,3.53752 -0.54715,1.84627 3.77659,0.70115 6.70038,-1.77479 2.46898,-2.09081 3.40679,-3.25455 2.86838,-3.42376 z m -55.77209,-16.39171 c -2.34566,-0.60221 -6.15676,-0.86724 -9.08358,-0.41856 l -4.2914,0.65736 3.52611,1.92499 c 1.93934,1.05818 4.03651,2.14869 4.65959,2.42387 1.29744,0.57293 6.93254,-1.90522 7.32223,-3.22017 0.15531,-0.52409 -0.72554,-1.00619 -2.13295,-1.36749 z m -1.72209,0.20874 c 9.7e-4,2.5e-4 0.005,0.001 0.006,0.002 l 0.001,0.002 0.002,5.5e-4 0.002,5.6e-4 10e-4,0.002 0.002,5.5e-4 0.002,5.5e-4 0.002,5.6e-4 0.001,0.002 0.001,0.002 0.002,5.5e-4 -5.5e-4,0.002 0.001,0.002 0.001,0.002 10e-4,0.002 -5.5e-4,0.002 -5.5e-4,0.002 c -0.008,0.1101 -0.54815,0.51389 -1.59231,1.25557 -1.32962,0.94447 -2.63494,1.65142 -2.9004,1.57275 -1.05215,-0.31181 -0.0639,-1.1601 2.56045,-2.19906 1.1518,-0.45599 1.78043,-0.6902 1.90784,-0.65686 z m 20.62661,6.1209 c -0.7031,-0.20836 -1.80536,0.0915 -2.44828,0.66577 -0.64291,0.57433 -0.59339,1.21548 0.10972,1.42384 0.7031,0.20837 1.80536,-0.0914 2.44828,-0.66577 0.6429,-0.57432 0.59339,-1.21547 -0.10972,-1.42384 z M 155.68873,97.189364 c -2.02655,-0.68933 -3.40082,-0.733 -3.05547,-0.0968 0.34535,0.63623 -0.90055,1.49613 -2.7685,1.91128 l -3.39758,0.75519 3.50346,1.087146 c 2.20507,0.68455 3.70181,0.41103 4.04213,-0.73733 0.29727,-1.003106 1.62572,-1.788116 2.95145,-1.745026 1.39455,0.0453 0.85628,-0.44939 -1.27549,-1.17449 z m 23.62184,8.228746 c -1.46074,-0.4329 -3.72125,-0.0748 -5.02332,0.79694 -2.11894,1.41863 -2.00251,1.58281 1.10561,1.56212 4.89221,-0.0326 7.16031,-1.39811 3.91771,-2.35906 z m 56.61831,16.80138 c -0.81227,-0.2766 -2.96761,0.28856 -6.21495,1.65587 -3.13825,1.32139 -4.08537,2.2115 -2.77234,2.60479 1.81944,0.54546 8.89543,-2.14978 9.3092,-3.54599 0.10898,-0.36773 -0.004,-0.60642 -0.32191,-0.71467 z m -29.58928,-7.24307 c -3.78405,-0.9456 -10.95751,-0.74216 -15.37654,0.95751 -4.9443,1.90173 -3.75716,2.23015 4.10958,1.13844 3.47715,-0.48245 7.90724,-0.42049 9.84537,0.13708 1.93812,0.55758 3.69577,0.43822 3.90413,-0.26488 0.25834,-0.87173 -0.76249,-1.53841 -2.48254,-1.96815 z M 126.46773,92.937904 c -0.28876,-0.0898 -0.84815,0.0807 -1.75899,0.47077 -1.31406,0.56274 -2.64501,1.88637 -2.95756,2.94103 -0.46218,1.55955 -0.12213,1.72625 1.82101,0.89411 1.31405,-0.56274 2.645,-1.88637 2.95755,-2.94103 0.24554,-0.82851 0.26534,-1.26342 -0.062,-1.36488 z m 40.63823,12.110456 c -0.36385,-0.087 -0.68489,0.1183 -0.82712,0.59824 -0.22066,0.74459 0.1728,1.52401 0.8759,1.73238 0.70311,0.20837 1.35416,0.12543 1.44604,-0.18463 0.0919,-0.31006 -0.30344,-1.09002 -0.87776,-1.73294 -0.17948,-0.20091 -0.36512,-0.33034 -0.54403,-0.39141 -0.0246,-0.008 -0.0489,-0.0155 -0.073,-0.0216 z m -6.03835,-0.86464 c -0.74463,-0.22068 -1.16889,0.28006 -0.94271,1.11195 0.22618,0.83189 0.66537,1.58648 0.97543,1.67837 0.31006,0.0919 0.73377,-0.40698 0.94214,-1.1101 0.20837,-0.7031 -0.23025,-1.45956 -0.97486,-1.68022 z m 17.97157,5.32592 c -1.40622,-0.41674 -2.71079,-0.23566 -2.89965,0.40163 -0.18886,0.63728 0.89609,1.19727 2.41129,1.24627 1.5152,0.049 2.82107,-0.12965 2.90096,-0.39921 0.0799,-0.26955 -1.00638,-0.83196 -2.4126,-1.24869 z m 57.56632,17.05992 c -2.12266,-0.62905 -9.16582,2.27577 -8.49855,3.5051 0.67817,1.24943 4.87806,0.41744 7.81237,-1.5471 1.69633,-1.1357 1.86304,-1.60923 0.68618,-1.958 z M 117.37477,92.626564 c -0.7446,-0.22066 -1.52402,0.17279 -1.73239,0.8759 -0.20836,0.70311 -0.12548,1.35414 0.18464,1.44605 0.31005,0.0919 1.09001,-0.30345 1.73293,-0.87777 0.64291,-0.57434 0.55943,-1.22352 -0.18518,-1.44418 z m 29.28943,8.818516 c -0.46873,-0.13891 -1.02745,0.0203 -1.80082,0.44005 -1.54675,0.83955 -1.30527,1.28156 1.08104,1.98874 2.38631,0.70719 2.82774,0.46758 1.98819,-1.07917 -0.41978,-0.77337 -0.79967,-1.2107 -1.26841,-1.34962 z m 92.32979,28.61294 c -1.78678,-0.52951 -11.15068,2.4735 -11.51172,3.69179 -0.45406,1.53215 7.22841,0.10593 10.21999,-1.89695 1.24005,-0.83022 1.82217,-1.63764 1.29173,-1.79484 z m 20.80034,7.55556 c -0.7446,-0.22066 -1.52456,0.17467 -1.73293,0.87777 -0.20837,0.70311 -0.12488,1.35229 0.18518,1.44418 0.31006,0.0919 1.08948,-0.30157 1.73239,-0.8759 0.64291,-0.57433 0.55997,-1.22538 -0.18464,-1.44605 z m 12.00353,3.55728 c -1.46497,-0.43415 -12.49766,2.59958 -12.77903,3.51382 -0.46117,1.49952 0.84876,1.51843 7.07127,0.10128 5.03315,-1.1463 7.90344,-2.96441 5.70776,-3.6151 z M 145.10292,105.0362 c -2.64855,-0.80034 -3.60228,-0.54141 -3.48582,0.94294 0.0882,1.12401 -0.609,2.11867 -1.54963,2.21138 -0.94058,0.0927 -0.56158,0.51382 0.84292,0.9363 1.40452,0.42249 3.85071,0.617 5.43601,0.42946 l 2.88189,-0.34171 -2.52394,-0.86613 c -2.09987,-0.72128 -2.14092,-0.98182 -0.24031,-1.53995 1.7691,-0.51951 1.46232,-0.91908 -1.36112,-1.77229 z m 23.80825,8.42456 c -0.31004,-0.0919 -1.09001,0.30344 -1.73293,0.87776 -0.64291,0.57433 -0.55997,1.22538 0.18463,1.44604 0.7446,0.22067 1.52457,-0.17466 1.73294,-0.87776 0.20837,-0.7031 0.12542,-1.35416 -0.18464,-1.44604 z m 80.63942,23.93029 c -0.78171,-0.25732 -0.66631,0.25635 0.0971,1.8927 1.42084,3.04549 3.29938,3.9161 3.2186,1.49162 -0.0322,-0.96561 -1.0339,-2.26217 -2.22595,-2.88212 -0.46939,-0.24412 -0.82915,-0.41642 -1.08972,-0.5022 z M 181.97793,117.4859 c -0.29842,-0.10408 -0.67655,-0.19114 -1.13773,-0.25772 -1.67457,-0.24072 -3.4668,0.1688 -3.98187,0.91205 -0.59683,0.86124 0.0991,1.3857 1.91863,1.44454 3.53495,0.11429 5.28997,-1.3706 3.20097,-2.09887 z M 76.624779,86.577944 c 0.02416,0.006 0.04842,0.0133 0.07303,0.0216 0.178826,0.0613 0.364534,0.19053 0.544022,0.39141 0.57434,0.64292 0.969655,1.42288 0.877768,1.73295 -0.09189,0.31005 -0.742935,0.39299 -1.446044,0.18462 -0.703107,-0.20837 -1.096563,-0.98778 -0.875899,-1.73238 0.142237,-0.47996 0.463268,-0.68519 0.827121,-0.59824 z M 242.96297,137.02567 c -0.56208,-0.15218 -0.8494,0.38955 -0.761,1.51619 0.0973,1.24002 0.7398,2.42133 1.42627,2.62477 1.68029,0.49796 1.48942,-2.71983 -0.23277,-3.92315 -0.15786,-0.1103 -0.30279,-0.1827 -0.4325,-0.21781 z m -7.24196,-1.57375 c -0.46362,-0.11309 -1.53537,0.0684 -3.35345,0.52383 -2.46823,0.61832 -4.61662,1.56229 -4.77559,2.09872 -0.46705,1.57597 6.6888,0.13134 8.03418,-1.62193 0.43935,-0.57256 0.50396,-0.90086 0.0949,-1.00062 z M 98.257652,94.816164 c 7.721308,2.4097 8.459638,3.17035 5.744928,5.917256 -1.08198,1.09477 -4.641062,2.5995 -7.908877,3.34374 l -5.94151,1.35188 -1.018905,-5.889676 c -1.228643,-7.10051 -0.197689,-7.63249 9.124364,-4.7232 z m 20.729618,7.216816 c -0.0935,-0.0214 -0.19918,-0.0157 -0.31648,0.0162 -0.83188,0.22617 -1.84221,1.52828 -2.24664,2.89299 -0.40444,1.36472 -0.16129,2.65134 0.54182,2.85971 0.7031,0.20836 1.71529,-1.09318 2.2485,-2.89244 0.46394,-1.5655 0.36837,-2.69128 -0.18787,-2.86482 -0.0129,-0.004 -0.0259,-0.009 -0.0393,-0.0117 z m 151.62249,45.73836 c -0.7032,-0.20803 -1.44966,0.19686 -1.65803,0.89997 -0.20837,0.7031 0.19686,1.44966 0.89996,1.65803 0.70311,0.20837 1.44781,-0.19741 1.65618,-0.90051 0.20836,-0.70311 -0.195,-1.44912 -0.89811,-1.65749 z m -123.44225,-36.5315 c -1.37845,-0.38139 -4.20449,-0.24305 -6.28006,0.30839 l -3.77241,1.00264 4.65358,0.57445 c 5.29446,0.65254 9.39519,-0.7797 5.39889,-1.88548 z m 29.58121,10.19854 c -1.72,-0.47343 -5.42676,0.0343 -5.72961,1.05617 -0.18986,0.64065 1.29083,0.9354 3.28932,0.65497 1.99848,-0.28045 3.4606,-0.83018 3.24842,-1.22109 -0.11914,-0.21943 -0.41121,-0.38079 -0.80813,-0.49005 z m -13.5673,-2.72104 c -0.31004,-0.0919 -1.08946,0.30157 -1.73238,0.8759 -0.64291,0.57433 -0.55998,1.22538 0.18462,1.44604 0.7446,0.22067 1.52458,-0.17466 1.73295,-0.87776 0.20837,-0.70312 0.12488,-1.35229 -0.18519,-1.44418 z m 89.98927,26.99041 c -2.15505,-0.7503 -9.34548,0.45204 -11.033,1.95954 -1.74585,1.55961 -0.32884,1.63469 6.5535,0.34304 3.40982,-0.63995 5.58805,-1.59665 4.84078,-2.12626 -0.0958,-0.0679 -0.2176,-0.12634 -0.36128,-0.17632 z m 6.7896,3.07955 c -0.31006,-0.0919 -1.09004,0.30344 -1.73294,0.87776 -0.64292,0.57433 -0.55998,1.22538 0.18462,1.44604 0.74461,0.22067 1.52458,-0.17466 1.73294,-0.87776 0.20837,-0.70311 0.12544,-1.35415 -0.18462,-1.44604 z M 146.86137,115.34551 c -0.72063,-0.1905 -1.98205,-0.29423 -3.8684,-0.34379 -1.70763,-0.0449 -3.23174,0.3468 -3.38691,0.8704 -0.37469,1.26434 6.22473,1.88487 7.54099,0.70902 0.67395,-0.60206 0.64082,-0.9907 -0.28568,-1.23563 z m 85.00746,25.38571 c -2.24729,-0.58902 -6.58678,0.44292 -7.02095,1.90794 -0.20638,0.69642 1.78292,0.84894 4.41951,0.34008 2.63659,-0.50886 4.17503,-1.3609 3.41922,-1.89363 -0.21816,-0.15383 -0.49674,-0.27024 -0.81778,-0.35439 z M 83.791146,97.253404 c 0.856009,0.27642 1.520695,0.79253 1.942624,1.5698 1.054203,1.942226 -0.510728,3.741246 -10.42117,11.986096 -11.675481,9.71325 -16.020982,11.35331 -17.977398,6.78487 -0.694587,-1.62194 0.256544,-3.47757 3.896965,-7.60255 7.730743,-8.75975 17.936561,-14.230976 22.558979,-12.738216 z M 237.34103,142.97015 c -0.0429,-0.0138 -0.0843,-0.0261 -0.12602,-0.0353 -0.15406,-0.0347 -0.30244,-0.0359 -0.4357,-8e-4 -0.71077,0.18717 -0.65716,1.06666 0.11766,1.95382 2.19102,2.50869 3.53728,2.49533 2.29629,-0.0223 -0.46916,-0.95179 -1.21135,-1.68363 -1.85223,-1.89543 z m -63.81905,-18.36292 c -1.33618,-0.33507 -6.39731,1.64574 -6.68502,2.61658 -0.12884,0.43474 1.39845,0.56251 3.39357,0.28253 3.37257,-0.47327 5.49791,-2.34576 3.29145,-2.89911 z m -23.583,-5.56903 c -0.72062,-0.19051 -1.98204,-0.29424 -3.86839,-0.3438 -1.70764,-0.0449 -3.23174,0.3468 -3.38691,0.8704 -0.3747,1.26435 6.22473,1.88487 7.54099,0.70902 0.67395,-0.60206 0.64082,-0.9907 -0.28569,-1.23562 z m 3.23995,3.06244 c -1.52666,-0.40445 -4.31737,-0.25051 -5.27092,0.60133 -0.56531,0.505 -0.46392,1.08478 0.22318,1.2884 2.18028,0.64613 5.74039,0.0554 6.05456,-1.00468 0.11895,-0.40138 -0.31289,-0.7012 -1.00682,-0.88505 z m 57.96516,17.78314 c -0.31004,-0.0919 -1.09002,0.30344 -1.73293,0.87776 -0.64291,0.57434 -0.55943,1.22352 0.18517,1.44418 0.7446,0.22067 1.52402,-0.17279 1.73239,-0.8759 0.20837,-0.70311 0.12543,-1.35416 -0.18463,-1.44604 z M 115.0288,111.82959 c -0.42385,-0.10339 -0.82109,0.59166 -1.28454,2.1555 -0.52787,1.78121 -0.65851,3.80577 -0.28987,4.49754 0.36864,0.69176 1.23875,0.043 1.9346,-1.44136 0.69585,-1.48432 0.8265,-3.50889 0.28987,-4.49754 -0.23009,-0.42391 -0.44305,-0.66365 -0.65006,-0.71414 z m 114.23793,34.69194 c -3.01168,-0.80428 -6.50226,-0.29658 -9.40135,1.61604 -4.50664,2.97314 -5.95881,5.18779 -4.79999,7.32271 0.34549,0.63653 1.98757,-0.56451 3.64709,-2.66944 3.65014,-4.62985 9.27537,-5.8453 12.46618,-2.69189 2.54267,2.51288 5.02467,1.85515 2.76123,-0.73193 -1.23085,-1.40684 -2.86616,-2.3629 -4.67316,-2.84549 z m -56.18775,-16.21951 c -2.33279,-0.66327 -9.93079,-0.0138 -10.26158,1.10238 -0.4055,1.36831 -0.16539,1.39618 6.022,0.72739 2.9475,-0.3186 5.14423,-0.97661 4.88041,-1.46264 -0.0818,-0.15076 -0.30758,-0.27238 -0.64083,-0.36713 z m 131.26205,38.93243 c 1.5039,0.48605 3.13093,1.55382 4.22192,2.84214 3.1521,3.7222 5.89791,4.56094 11.41156,3.48574 6.10962,-1.19135 6.76342,1.06764 3.44867,11.92654 -2.26486,7.41966 -3.94716,10.43295 -8.7855,15.74647 l -5.98277,6.5709 1.04618,-5.23491 c 1.17681,-5.89115 0.16921,-9.47497 -2.60182,-9.25756 -2.77647,0.21785 -2.90795,-2.25214 -0.18244,-3.41933 1.30441,-0.5586 2.54652,-1.60899 2.76167,-2.33498 0.21515,-0.726 -0.94224,-0.67931 -2.57289,0.10328 -1.63064,0.78257 -3.92518,1.13663 -5.10025,0.7884 -1.17508,-0.34824 -2.30734,-0.0573 -2.51571,0.64579 -0.20836,0.7031 0.195,1.44911 0.89811,1.65748 0.70311,0.20837 1.10009,0.98272 0.88109,1.72171 -0.62915,2.12296 -10.63765,2.66489 -14.22908,0.76996 -2.29489,-1.21079 -4.14165,-1.17962 -6.25528,0.10794 -1.64932,1.00468 -4.27809,1.44762 -5.8408,0.98451 -1.5627,-0.46311 -3.81292,-0.19128 -5.00076,0.60399 -1.18785,0.79526 -3.22227,1.13105 -4.52139,0.74605 -1.41603,-0.41964 -4.13537,0.99724 -6.78932,3.53904 -5.3692,5.14232 -6.96527,5.0612 -4.30799,-0.22149 5.02233,-9.98439 16.95586,-19.42941 26.01436,-20.58978 3.41274,-0.43716 6.26617,-1.76001 7.19726,-3.33462 1.98657,-3.35956 11.32268,-8.29585 15.36581,-8.12513 0.44947,0.019 0.93806,0.11584 1.43937,0.27786 z M 71.688048,102.72758 c -0.907295,-0.26888 -9.54428,7.78957 -11.312891,10.55458 -1.028182,1.60745 -1.431612,2.70305 -0.895048,2.43594 1.300563,-0.64746 12.749312,-12.83008 12.207939,-12.99052 z m 121.701822,36.06664 c -0.31006,-0.0919 -1.09003,0.30344 -1.73294,0.87777 -0.64292,0.57433 -0.55943,1.22351 0.18519,1.44418 0.74459,0.22066 1.52401,-0.17279 1.73238,-0.87591 0.20837,-0.7031 0.12544,-1.35415 -0.18463,-1.44604 z m -20.13521,-4.57579 c -2.12845,-0.63078 -8.6616,0.57709 -8.98272,1.66065 -0.37072,1.25098 7.77973,0.95364 9.22381,-0.33639 0.57961,-0.51778 0.4705,-1.11338 -0.24109,-1.32426 z m 29.26724,8.67342 c -0.7031,-0.20837 -1.44725,0.19554 -1.65562,0.89865 -0.20836,0.70311 0.195,1.44912 0.89811,1.65748 0.70311,0.20837 1.44966,-0.19685 1.65803,-0.89996 0.20837,-0.70311 -0.1974,-1.4478 -0.90052,-1.65617 z M 39.49327,95.959054 c 1.512218,0.39485 0.8709,2.77753 -1.883333,8.032256 -1.849248,3.52814 -5.956401,14.56292 -9.126704,24.52095 -3.170305,9.95804 -5.895727,18.06748 -6.057784,18.02154 -0.162055,-0.0459 -0.837831,-2.9052 -1.502924,-6.35295 -2.477716,-12.84413 8.243055,-41.705336 16.339709,-43.986646 0.983984,-0.27725 1.726965,-0.36677 2.231036,-0.23515 z m 144.82838,42.928406 c -0.7446,-0.22066 -1.52456,0.17466 -1.73293,0.87777 -0.20837,0.7031 -0.12544,1.35415 0.18462,1.44604 0.31006,0.0919 1.09004,-0.30344 1.73295,-0.87777 0.64291,-0.57432 0.55998,-1.22537 -0.18464,-1.44604 z m -10.7148,-0.39271 c -2.31965,-0.68743 -8.85713,0.46697 -9.20023,1.62471 -0.36378,1.22753 3.44419,1.11676 7.67651,-0.22251 1.66481,-0.52682 2.35019,-1.15727 1.52372,-1.4022 z m -43.3392,-12.37922 c -0.36351,-0.0881 -0.68489,0.11831 -0.82712,0.59823 -0.22067,0.74461 0.17465,1.52458 0.87776,1.73295 0.70311,0.20836 1.35229,0.12488 1.44418,-0.18518 0.0919,-0.31005 -0.30158,-1.08948 -0.8759,-1.73239 -0.17948,-0.20091 -0.36699,-0.3309 -0.54589,-0.39196 -0.0246,-0.008 -0.0489,-0.0155 -0.073,-0.0216 z m 97.41496,29.74512 c 1.64657,0.50788 2.40666,1.94237 1.80308,3.97906 -0.87304,2.86431 -2.95854,4.45993 -5.71932,3.34482 -0.80638,-0.45626 -1.59937,-1.36697 -1.9158,-2.49892 -0.55776,-1.99525 0.3006,-4.18295 2.0132,-4.66924 1.52319,-0.43252 2.83089,-0.46044 3.81884,-0.15572 z M 116.10508,124.23459 c -0.7031,-0.20837 -1.09396,0.30227 -0.86779,1.13415 0.22618,0.83189 0.98766,1.682 1.69076,1.89036 0.70311,0.20837 1.09155,-0.30095 0.86538,-1.13284 -0.22619,-0.83189 -0.98524,-1.68331 -1.68835,-1.89167 z m 27.07252,8.02301 c -0.7446,-0.22067 -1.52457,0.17465 -1.73294,0.87776 -0.20837,0.70311 -0.12487,1.3523 0.18518,1.44418 0.31005,0.0919 1.08947,-0.30157 1.73239,-0.8759 0.6429,-0.57433 0.55997,-1.22538 -0.18463,-1.44604 z m 150.77244,44.68179 c -0.70311,-0.20837 -1.44966,0.19686 -1.65803,0.89996 -0.20837,0.70312 0.1974,1.44781 0.90052,1.65618 0.7031,0.20836 1.44911,-0.19499 1.65748,-0.89811 0.20836,-0.7031 -0.19686,-1.44966 -0.89997,-1.65803 z M 175.74855,142.14231 c -0.0313,-0.006 -0.0719,-0.008 -0.12012,-0.007 -6.21054,0.15078 -12.13483,1.06509 -12.38555,1.91112 -0.65524,2.21101 4.91084,2.37596 9.22829,0.27403 2.35109,-1.14462 3.74681,-2.08094 3.27738,-2.17807 z m 49.95999,15.21726 c -0.29946,-0.078 -0.60742,-0.0849 -0.90976,-0.003 -0.66364,0.18043 -1.45287,1.15624 -1.75312,2.16941 -0.64288,2.1693 2.56211,3.45018 4.43872,1.77376 1.20301,-1.07467 -0.15876,-3.51929 -1.77584,-3.94042 z m -20.59525,-6.0342 c -2.09363,-0.62671 -4.96063,-0.43885 -5.32788,0.80039 -0.20636,0.69632 0.63839,1.18716 1.87703,1.08998 1.23865,-0.0972 3.18421,0.0983 4.32199,0.43545 1.33242,0.39486 1.75812,0.0429 1.19772,-0.98954 -0.32509,-0.59894 -1.11717,-1.05156 -2.06886,-1.33628 z m -67.50377,-19.32656 c -0.70311,-0.20837 -1.44911,0.19499 -1.65748,0.8981 -0.20836,0.70311 0.19685,1.44966 0.89997,1.65803 0.7031,0.20837 1.4478,-0.19741 1.65617,-0.90051 0.20837,-0.70312 -0.19555,-1.44726 -0.89866,-1.65562 z m 49.71615,14.91277 c -4.28527,-1.38348 -9.0895,0.42126 -14.13825,5.32329 -2.70844,2.62975 -5.35074,4.01832 -6.81872,3.58328 -1.31824,-0.39066 -2.21192,-0.029 -1.98574,0.80285 1.09365,4.02248 5.62007,2.59288 13.62869,-4.30501 3.63292,-3.12906 4.8449,-3.40906 8.91795,-2.06077 5.47729,1.81313 6.53557,-0.75429 1.24665,-3.02434 -0.28098,-0.12061 -0.56476,-0.2275 -0.85058,-0.3193 z M 97.274381,121.45709 c 2.065077,0.59677 2.660177,1.58186 2.099417,3.4741 -1.233287,4.16154 0.0256,7.72913 3.807232,10.79221 3.05597,2.47532 9.03726,11.56621 8.5939,13.06227 -0.40043,1.35117 -7.36682,-1.89482 -9.09283,-4.23675 -2.16965,-2.9439 -10.182659,-5.80403 -10.764155,-3.84186 -0.208367,0.70311 1.059754,1.70539 2.81753,2.22631 3.229212,0.95699 3.441577,2.85064 0.719607,6.39786 -1.258525,1.64009 -1.506301,1.54258 -2.451117,-0.96066 -0.99446,-2.63477 -1.094484,-2.64694 -1.83096,-0.23501 -1.069227,3.50166 -0.445203,4.9312 5.13893,11.76337 2.666307,3.26221 4.765855,6.21021 4.664995,6.55057 -0.59994,2.02438 -7.498733,9.23835 -10.523424,11.00447 -2.95739,1.72683 -4.926196,1.68945 -11.378364,-0.22267 -5.001126,-1.48209 -8.613037,-3.33282 -10.059901,-5.15281 -5.904076,-7.42663 -3.68474,-21.96377 4.899061,-32.08675 6.378627,-7.52238 9.801269,-9.04695 16.107748,-7.17801 5.556118,1.64657 6.300662,0.30889 1.431881,-2.57018 -1.801544,-1.06523 -4.816921,-1.49676 -7.350386,-1.04975 -3.197292,0.5641 -4.176336,0.35848 -3.831404,-0.80544 0.778262,-2.62614 4.251362,-3.77782 8.020223,-2.66091 3.655082,1.08319 5.402565,-0.38255 2.868056,-2.4053 -2.004789,-1.59999 2.3906,-2.94095 6.113961,-1.86506 z m 49.374339,15.0763 c -0.36384,-0.087 -0.68488,0.11831 -0.82711,0.59824 -0.22066,0.74459 0.17466,1.52457 0.87777,1.73293 0.70311,0.20837 1.35415,0.12543 1.44604,-0.18462 0.0919,-0.31006 -0.30343,-1.09003 -0.87777,-1.73294 -0.17948,-0.20091 -0.36698,-0.3309 -0.5459,-0.39197 -0.0246,-0.008 -0.0489,-0.0155 -0.073,-0.0216 z m -17.39207,-4.22935 c -0.74461,-0.22067 -1.52458,0.17466 -1.73294,0.87776 -0.20837,0.70312 -0.12489,1.3523 0.18517,1.44418 0.31006,0.0919 1.08948,-0.30156 1.73239,-0.8759 0.64292,-0.57432 0.55998,-1.22538 -0.18462,-1.44604 z m 12.14396,3.59889 c -0.31004,-0.0919 -1.09002,0.30345 -1.73293,0.87777 -0.64291,0.57434 -0.55943,1.22352 0.18517,1.44418 0.7446,0.22066 1.52402,-0.17279 1.73239,-0.8759 0.20837,-0.70311 0.12543,-1.35416 -0.18463,-1.44605 z m 16.80417,6.37129 c -0.70311,-0.20837 -1.44911,0.19499 -1.65748,0.8981 -0.20837,0.7031 0.19686,1.44967 0.89996,1.65803 0.70311,0.20837 1.44967,-0.19686 1.65803,-0.89996 0.20837,-0.70312 -0.1974,-1.4478 -0.90051,-1.65617 z m 131.1567,38.86862 c -0.28836,-0.0568 -1.08692,0.6345 -1.79297,1.55462 -0.71726,0.93473 -0.74744,1.86447 -0.0664,2.0663 0.68104,0.20183 1.49539,-0.49553 1.80795,-1.55019 0.31255,-1.05466 0.34086,-1.98496 0.0645,-2.06685 -0.005,-10e-4 -0.008,-0.003 -0.0131,-0.004 z m -83.51099,-24.58573 c -2.04158,-0.57342 -5.11177,-0.46253 -5.93891,0.73136 -0.79053,1.14105 -0.39595,1.56907 1.32069,1.43437 1.3455,-0.10556 3.26186,0.05 4.25903,0.34549 0.99715,0.2955 1.9945,-0.0763 2.21671,-0.82608 0.22222,-0.74985 -0.63258,-1.34107 -1.85752,-1.68514 z m -85.54113,-25.02846 c -0.12627,-0.0312 -0.22168,-0.0321 -0.28117,1.9e-4 -0.39637,0.21516 0.65026,1.76014 2.32545,3.43311 3.02697,3.02296 6.04282,4.65772 6.39542,3.46793 0.2456,-0.82875 -6.42153,-6.20063 -8.30355,-6.85885 -0.0488,-0.0165 -0.0941,-0.032 -0.13615,-0.0424 z m 30.74663,11.40763 c -0.70311,-0.20837 -1.44966,0.19686 -1.65803,0.89997 -0.20837,0.70311 0.1974,1.4478 0.90051,1.65617 0.70311,0.20837 1.44725,-0.19554 1.65562,-0.89866 0.20837,-0.7031 -0.19499,-1.44911 -0.8981,-1.65748 z m 36.33305,12.45003 c 0.28116,0.0885 0.53901,0.21929 0.76722,0.39441 2.32561,1.78456 0.62796,7.52244 -2.29323,7.75189 l -0.002,-5.5e-4 c -3.78901,0.29729 -5.59555,-0.70546 -5.79237,-3.21384 -0.22023,-2.80708 4.6024,-5.78795 7.32025,-4.93191 z m -52.54326,-14.19222 c -0.77163,-0.19446 -1.33417,-0.0623 -1.4765,0.41801 -0.21883,0.73841 1.11266,2.05023 2.9594,2.91615 6.22567,2.91916 7.71726,3.28995 8.09759,2.00658 0.20837,-0.70311 -0.91317,-1.66985 -2.49232,-2.14827 -1.57915,-0.47841 -4.06271,-1.60041 -5.51906,-2.49319 -0.56834,-0.34841 -1.10614,-0.58261 -1.56911,-0.69928 z m 27.04428,8.24891 c -2.76275,-1.0265 -11.55198,-1.43863 -12.31024,-0.35013 -0.7236,1.03873 0.2348,1.55305 3.49995,1.88261 4.5818,0.46244 10.16099,-0.1535 9.58451,-1.05859 -0.10772,-0.16913 -0.37954,-0.32725 -0.77422,-0.47389 z m -41.71914,-12.33303 c -0.50473,-0.15896 -1.10456,-0.0388 -1.55377,0.36253 -0.6534,0.5837 -0.29031,1.3277 0.80585,1.65255 2.2455,0.66546 2.80393,-0.004 1.35554,-1.62519 -0.16709,-0.18702 -0.37819,-0.31767 -0.60762,-0.38989 z m 64.79895,20.6517 c -1.58543,-0.52794 -4.05927,0.77999 -3.63605,2.33661 0.66019,2.42821 4.04557,3.1004 4.68845,0.93109 0.30025,-1.01316 0.17014,-2.26143 -0.28803,-2.77432 -0.20874,-0.23365 -0.47077,-0.3956 -0.76437,-0.49338 z M 56.021568,120.33587 c 0.594547,0.1762 -1.727788,8.78654 -5.159453,19.13519 -4.437656,13.38235 -5.89206,19.20403 -5.039103,20.15885 0.870178,0.97408 1.941651,-1.42236 3.903475,-8.73121 4.806072,-17.90523 8.762316,-29.08899 9.687884,-27.38378 1.332587,2.45505 -4.288821,25.44652 -8.201871,33.54634 -2.026155,4.19405 -3.501964,8.96253 -3.523256,11.38007 -0.04719,5.35795 -1.355298,6.08974 -2.048949,1.14672 -0.294428,-2.09831 -1.048088,-3.96718 -1.674214,-4.15273 -4.307392,-1.27651 0.08871,-24.08482 7.323965,-38.00087 1.856049,-3.56987 3.43577,-6.69933 3.511515,-6.95493 0.07574,-0.25558 0.625461,-0.31984 1.220007,-0.14365 z m 77.874732,24.46768 c -0.74459,-0.22074 -1.52458,0.17466 -1.73295,0.87776 -0.20836,0.70311 -0.12543,1.35415 0.18463,1.44604 0.31006,0.0919 1.09003,-0.30344 1.73294,-0.87776 0.64292,-0.57433 0.55998,-1.22538 -0.18462,-1.44604 z m 5.93732,3.15086 c -0.7031,-0.20836 -1.44966,0.19686 -1.65803,0.89997 -0.20837,0.70311 0.19741,1.4478 0.90051,1.65617 0.70312,0.20837 1.44912,-0.19499 1.65749,-0.8981 0.20836,-0.70311 -0.19685,-1.44967 -0.89997,-1.65804 z m 165.87089,49.89368 c 2.02396,0.57394 2.20114,2.38843 1.16961,5.86916 -3.08132,10.39748 -13.78735,18.3334 -29.57892,21.92904 -7.45807,1.69815 -10.42746,1.67454 -16.53184,-0.13451 -7.90795,-2.34354 -8.29435,-3.56484 -0.92459,-2.92221 2.98033,0.25989 5.35578,-0.58051 7.11171,-2.51662 1.44994,-1.59874 3.81077,-2.92989 5.246,-2.95748 1.43523,-0.0276 3.23918,-1.09447 4.01066,-2.37023 0.77147,-1.27574 2.31952,-2.0484 3.44001,-1.71634 1.12048,0.33206 2.3244,-0.36461 2.67562,-1.54973 0.35121,-1.18512 2.13308,-3.02657 3.95885,-4.09265 1.82578,-1.06608 3.88672,-3.26921 4.57952,-4.89467 0.89283,-2.09476 3.18988,-3.32235 7.8906,-4.21694 3.31781,-0.63141 5.56794,-0.81948 6.95277,-0.42682 z M 134.51735,149.70548 c -0.50472,-0.15896 -1.10456,-0.0388 -1.55377,0.36253 -0.6534,0.5837 -0.29214,1.32715 0.80398,1.65199 2.2455,0.66546 2.80394,-0.004 1.35554,-1.62518 -0.16708,-0.18702 -0.37632,-0.31712 -0.60575,-0.38934 z m -48.795502,-12.16283 -0.0024,0.001 c -0.227591,-0.0344 -0.890764,0.27683 -2.070645,0.86936 -3.341563,1.67812 -7.095808,9.5107 -7.790243,16.25124 -0.274103,2.66057 0.665306,7.35934 2.087953,10.4416 1.422648,3.08226 3.102723,5.75555 3.733,5.94233 1.819926,0.53934 1.645423,-0.43494 -1.083814,-6.05559 -3.604368,-7.42291 -2.011033,-17.19584 4.192535,-25.70209 0.819401,-1.12354 1.183908,-1.67065 0.956112,-1.74151 -0.0036,-0.001 -0.007,-0.002 -0.01124,-0.003 l -0.0019,-5.5e-4 -0.0019,-5.6e-4 -0.0019,-5.5e-4 -0.0019,-5.6e-4 -0.0019,-5.5e-4 z m 20.518062,35.70797 c 0.53562,0.18783 1.08555,0.48935 1.74103,0.86838 4.64079,2.68346 10.9101,8.70371 12.19959,11.71483 0.64366,1.50302 3.08696,3.10266 6.10797,3.99794 6.96411,2.06383 16.87574,11.2291 18.40529,17.019 0.6778,2.56579 0.91404,4.8372 0.52463,5.04856 -0.3894,0.21137 -2.4563,-1.18385 -4.59338,-3.10093 -3.32442,-2.98211 -5.7782,-3.86438 -16.97764,-6.109 -12.83529,-2.57242 -17.43941,-2.27553 -18.46774,1.19443 -0.28307,0.95518 -2.06903,1.67229 -3.96949,1.59204 -1.900462,-0.0803 -4.943625,0.90718 -6.761644,2.1946 -1.863021,1.3193 -4.611874,1.92807 -6.300924,1.39612 -6.462568,-2.03526 -11.845234,-10.97212 -10.118184,-16.79981 0.501702,-1.69292 -0.06806,-2.84969 -1.629862,-3.31253 -2.966564,-0.87915 -4.838982,-4.91515 -3.244322,-6.99328 0.688623,-0.8974 4.14285,-1.0298 8.245653,-0.31459 5.557054,0.96871 7.900806,0.65679 11.014462,-1.46391 9.430581,-6.42312 11.503511,-7.74575 13.824561,-6.93185 z m 2.25664,33.04418 c 0.78133,0.23363 1.88412,0.81073 3.45287,1.73217 2.44297,1.43493 5.74225,3.20773 7.33332,3.9394 1.59107,0.73167 3.12826,2.19593 3.41568,3.25305 0.2874,1.05716 1.52958,1.84155 2.76055,1.74497 1.23097,-0.0966 2.89975,1.04605 3.70925,2.53743 1.47401,2.7156 4.15804,3.21889 15.70745,2.94378 1.8431,-0.0439 0.73973,0.93692 -3.22569,2.86971 -4.64015,2.26167 -8.01323,2.72697 -14.66471,2.01998 -10.71274,-1.13867 -18.22969,-3.44215 -25.08614,-7.68694 -6.359161,-3.93692 -10.647038,-8.10734 -7.419493,-7.21614 1.150682,0.31775 3.064301,-0.0734 4.252145,-0.86861 2.224758,-1.4895 0.988726,-2.60405 -1.723315,-1.5537 -0.203228,0.0787 -0.317535,0.11465 -0.34853,0.1106 l -0.0019,-5.6e-4 -0.0019,-5.5e-4 -0.0019,-5.6e-4 -0.0013,-0.002 -0.0019,-5.5e-4 5.54e-4,-0.002 5.57e-4,-0.002 5.54e-4,-0.002 c 0.03148,-0.0686 0.725337,-0.4494 1.898921,-1.0323 1.687847,-0.8383 4.154987,-1.20297 5.483307,-0.80932 1.32832,0.39365 2.47508,0.26415 2.54814,-0.28784 0.19989,-1.51122 0.61095,-2.07565 1.91338,-1.68598 z" />
  </g>
</svg>
